<svg width="24" height="24" viewBox="0 0 24 24" fill="none" xmlns="http://www.w3.org/2000/svg">
<path d="M20 10.5228V19.25C20 19.6358 19.8468 20.0058 19.574 20.2786C19.3012 20.5513 18.9312 20.7046 18.5455 20.7046H5.45455C5.06878 20.7046 4.69881 20.5513 4.42603 20.2786C4.15325 20.0058 4 19.6358 4 19.25V10.5228C4 10.137 4.15325 9.76703 4.42603 9.49425C4.69881 9.22147 5.06878 9.06822 5.45455 9.06822H11.2727V13.4319C11.2727 13.6247 11.3494 13.8097 11.4857 13.9461C11.6221 14.0825 11.8071 14.1591 12 14.1591C12.1929 14.1591 12.3779 14.0825 12.5143 13.9461C12.6507 13.8097 12.7273 13.6247 12.7273 13.4319V9.06822H18.5455C18.9312 9.06822 19.3012 9.22147 19.574 9.49425C19.8468 9.76703 20 10.137 20 10.5228ZM12.7273 4.27822L15.1218 6.67368C15.2583 6.81014 15.4434 6.88681 15.6364 6.88681C15.8294 6.88681 16.0144 6.81014 16.1509 6.67368C16.2874 6.53721 16.364 6.35212 16.364 6.15913C16.364 5.96614 16.2874 5.78105 16.1509 5.64458L12.5145 2.00822C12.447 1.9406 12.3668 1.88696 12.2785 1.85036C12.1902 1.81376 12.0956 1.79492 12 1.79492C11.9044 1.79492 11.8098 1.81376 11.7215 1.85036C11.6332 1.88696 11.553 1.9406 11.4855 2.00822L7.84909 5.64458C7.71262 5.78105 7.63596 5.96614 7.63596 6.15913C7.63596 6.35212 7.71263 6.53721 7.84909 6.67368C7.98556 6.81014 8.17064 6.88681 8.36364 6.88681C8.55663 6.88681 8.74172 6.81014 8.87818 6.67368L11.2727 4.27822V9.06822H12.7273V4.27822Z" fill="white"/>
</svg>
