<svg width="18" height="18" viewBox="0 0 18 18" fill="none" xmlns="http://www.w3.org/2000/svg">
<path d="M1.74219 8.29688C1.74219 7.47396 1.89583 6.70312 2.20312 5.98438C2.51042 5.26042 2.9375 4.6276 3.48438 4.08594C4.03125 3.53906 4.66406 3.11198 5.38281 2.80469C6.10156 2.49219 6.8724 2.33594 7.69531 2.33594C8.52344 2.33594 9.29688 2.49219 10.0156 2.80469C10.7344 3.11198 11.3672 3.53906 11.9141 4.08594C12.4609 4.6276 12.888 5.26042 13.1953 5.98438C13.5026 6.70312 13.6562 7.47396 13.6562 8.29688C13.6562 8.95312 13.5547 9.58073 13.3516 10.1797C13.1484 10.7734 12.862 11.3151 12.4922 11.8047L15.9844 15.3047C16.0729 15.4036 16.1406 15.513 16.1875 15.6328C16.2344 15.7526 16.2578 15.875 16.2578 16C16.2578 16.1927 16.2161 16.362 16.1328 16.5078C16.0495 16.6589 15.9349 16.776 15.7891 16.8594C15.6432 16.9479 15.4766 16.9922 15.2891 16.9922C15.1589 16.9922 15.0312 16.9688 14.9062 16.9219C14.7812 16.8802 14.6719 16.8125 14.5781 16.7188L11.0625 13.1953C10.5833 13.5286 10.0599 13.7891 9.49219 13.9766C8.92448 14.1641 8.32552 14.2578 7.69531 14.2578C6.8724 14.2578 6.10156 14.1042 5.38281 13.7969C4.66406 13.4896 4.03125 13.0625 3.48438 12.5156C2.9375 11.9688 2.51042 11.3359 2.20312 10.6172C1.89583 9.89323 1.74219 9.11979 1.74219 8.29688ZM3.16406 8.29688C3.16406 8.92188 3.28125 9.51042 3.51562 10.0625C3.75 10.6094 4.07552 11.0911 4.49219 11.5078C4.90885 11.9193 5.39062 12.2422 5.9375 12.4766C6.48438 12.7109 7.07031 12.8281 7.69531 12.8281C8.32031 12.8281 8.90625 12.7109 9.45312 12.4766C10.0052 12.2422 10.487 11.9193 10.8984 11.5078C11.3151 11.0911 11.6406 10.6094 11.875 10.0625C12.1094 9.51042 12.2266 8.92188 12.2266 8.29688C12.2266 7.67188 12.1094 7.08594 11.875 6.53906C11.6406 5.98698 11.3151 5.50521 10.8984 5.09375C10.487 4.67708 10.0052 4.35156 9.45312 4.11719C8.90625 3.88281 8.32031 3.76562 7.69531 3.76562C7.07031 3.76562 6.48438 3.88281 5.9375 4.11719C5.39062 4.35156 4.90885 4.67708 4.49219 5.09375C4.07552 5.50521 3.75 5.98698 3.51562 6.53906C3.28125 7.08594 3.16406 7.67188 3.16406 8.29688Z" fill="#F1F1F5"/>
</svg>
