<svg width="36" height="41" viewBox="0 0 36 41" fill="none" xmlns="http://www.w3.org/2000/svg">
<g filter="url(#filter0_d_1731_11392)">
<path d="M10.6309 32.6895C10.166 32.6895 9.79688 32.5391 9.52344 32.2383C9.25 31.9375 9.11328 31.5182 9.11328 30.9805V8.44922C9.11328 7.20052 9.43229 6.2526 10.0703 5.60547C10.7083 4.95833 11.6471 4.63477 12.8867 4.63477H23.0996C24.3392 4.63477 25.278 4.95833 25.916 5.60547C26.554 6.2526 26.873 7.20052 26.873 8.44922V30.9805C26.873 31.5182 26.7363 31.9375 26.4629 32.2383C26.1895 32.5391 25.8158 32.6895 25.3418 32.6895C25.0046 32.6895 24.6947 32.5846 24.4121 32.375C24.1296 32.1654 23.7012 31.7826 23.127 31.2266L18.1094 26.2637C18.0365 26.1908 17.959 26.1908 17.877 26.2637L12.8457 31.2266C12.2806 31.7826 11.8522 32.1654 11.5605 32.375C11.278 32.5846 10.9681 32.6895 10.6309 32.6895ZM11.793 28.834L17.2207 23.5703C17.4577 23.3242 17.7129 23.2012 17.9863 23.2012C18.2598 23.2012 18.5195 23.3242 18.7656 23.5703L24.207 28.834C24.2891 28.916 24.3711 28.9434 24.4531 28.916C24.5352 28.8978 24.5762 28.8249 24.5762 28.6973V8.55859C24.5762 8.01172 24.4395 7.60612 24.166 7.3418C23.8926 7.06836 23.4824 6.93164 22.9355 6.93164H13.0371C12.4993 6.93164 12.0892 7.06836 11.8066 7.3418C11.5332 7.60612 11.3965 8.01172 11.3965 8.55859V28.6973C11.3965 28.8249 11.4375 28.8978 11.5195 28.916C11.6107 28.9434 11.7018 28.916 11.793 28.834Z" fill="#F1F1F5"/>
</g>
<defs>
<filter id="filter0_d_1731_11392" x="5.11328" y="4.63477" width="25.7598" height="36.0547" filterUnits="userSpaceOnUse" color-interpolation-filters="sRGB">
<feFlood flood-opacity="0" result="BackgroundImageFix"/>
<feColorMatrix in="SourceAlpha" type="matrix" values="0 0 0 0 0 0 0 0 0 0 0 0 0 0 0 0 0 0 127 0" result="hardAlpha"/>
<feOffset dy="4"/>
<feGaussianBlur stdDeviation="2"/>
<feComposite in2="hardAlpha" operator="out"/>
<feColorMatrix type="matrix" values="0 0 0 0 0 0 0 0 0 0 0 0 0 0 0 0 0 0 0.16 0"/>
<feBlend mode="normal" in2="BackgroundImageFix" result="effect1_dropShadow_1731_11392"/>
<feBlend mode="normal" in="SourceGraphic" in2="effect1_dropShadow_1731_11392" result="shape"/>
</filter>
</defs>
</svg>
