<svg width="24" height="24" viewBox="0 0 24 24" fill="none" xmlns="http://www.w3.org/2000/svg">
<path d="M17.8105 12.3301C17.8105 12.4668 17.7845 12.597 17.7324 12.7207C17.6803 12.8379 17.599 12.9486 17.4883 13.0527L10.2324 20.1523C10.0501 20.3411 9.82552 20.4355 9.55859 20.4355C9.36979 20.4355 9.20378 20.3932 9.06055 20.3086C8.91732 20.224 8.80013 20.1068 8.70898 19.957C8.62435 19.8138 8.58203 19.651 8.58203 19.4688C8.58203 19.2083 8.67969 18.9805 8.875 18.7852L15.4766 12.3301L8.875 5.875C8.67969 5.67969 8.58203 5.45182 8.58203 5.19141C8.58203 5.0026 8.62435 4.83659 8.70898 4.69336C8.80013 4.55013 8.91732 4.4362 9.06055 4.35156C9.20378 4.26693 9.36979 4.22461 9.55859 4.22461C9.82552 4.22461 10.0501 4.31901 10.2324 4.50781L17.4883 11.6074C17.599 11.7116 17.6803 11.8255 17.7324 11.9492C17.7845 12.0664 17.8105 12.1934 17.8105 12.3301Z" fill="#F1F1F5"/>
</svg>
