<svg width="24" height="24" viewBox="0 0 24 24" fill="none" xmlns="http://www.w3.org/2000/svg">
<path d="M18.5455 20.7271H14.0492C14.8045 20.0527 15.5168 19.3316 16.1819 18.568C18.6773 15.6981 20.0001 12.6726 20.0001 9.81808C20.0001 7.69636 19.1572 5.66154 17.6569 4.16125C16.1566 2.66097 14.1218 1.81812 12.0001 1.81812C9.87837 1.81812 7.84354 2.66097 6.34326 4.16125C4.84297 5.66154 4.00012 7.69636 4.00012 9.81808C4.00012 12.6726 5.31921 15.6981 7.81829 18.568C8.48338 19.3316 9.19569 20.0527 9.95101 20.7271H5.45466C5.26178 20.7271 5.07679 20.8037 4.9404 20.9401C4.80401 21.0765 4.72739 21.2615 4.72739 21.4544C4.72739 21.6473 4.80401 21.8323 4.9404 21.9687C5.07679 22.105 5.26178 22.1817 5.45466 22.1817H18.5455C18.7384 22.1817 18.9234 22.105 19.0598 21.9687C19.1962 21.8323 19.2728 21.6473 19.2728 21.4544C19.2728 21.2615 19.1962 21.0765 19.0598 20.9401C18.9234 20.8037 18.7384 20.7271 18.5455 20.7271ZM12.0001 6.909C12.5754 6.909 13.1379 7.07962 13.6163 7.39927C14.0947 7.71892 14.4675 8.17326 14.6877 8.70482C14.9079 9.23639 14.9655 9.82131 14.8533 10.3856C14.741 10.9499 14.464 11.4683 14.0571 11.8751C13.6503 12.282 13.1319 12.559 12.5676 12.6713C12.0033 12.7835 11.4184 12.7259 10.8868 12.5057C10.3553 12.2855 9.90093 11.9127 9.58128 11.4343C9.26162 10.9559 9.09101 10.3934 9.09101 9.81808C9.09101 9.04654 9.3975 8.30661 9.94306 7.76105C10.4886 7.21549 11.2286 6.909 12.0001 6.909Z" fill="white"/>
</svg>
