<svg width="21" height="21" viewBox="0 0 21 21" fill="none" xmlns="http://www.w3.org/2000/svg">
<path d="M3.38867 6.7851C3.38867 6.63896 3.44673 6.49881 3.55006 6.39547C3.6534 6.29213 3.79355 6.23408 3.93969 6.23408H6.49987C6.61864 5.83622 6.86264 5.48732 7.19559 5.23925C7.52853 4.99118 7.93265 4.85718 8.34786 4.85718C8.76306 4.85718 9.16718 4.99118 9.50013 5.23925C9.83307 5.48732 10.0771 5.83622 10.1958 6.23408H16.0621C16.2083 6.23408 16.3484 6.29213 16.4518 6.39547C16.5551 6.49881 16.6132 6.63896 16.6132 6.7851C16.6132 6.93124 16.5551 7.07139 16.4518 7.17473C16.3484 7.27807 16.2083 7.33612 16.0621 7.33612H10.1958C10.0771 7.73397 9.83307 8.08288 9.50013 8.33095C9.16718 8.57902 8.76306 8.71302 8.34786 8.71302C7.93265 8.71302 7.52853 8.57902 7.19559 8.33095C6.86264 8.08288 6.61864 7.73397 6.49987 7.33612H3.93969C3.79355 7.33612 3.6534 7.27807 3.55006 7.17473C3.44673 7.07139 3.38867 6.93124 3.38867 6.7851ZM16.0621 12.8463H14.604C14.4852 12.4485 14.2412 12.0996 13.9083 11.8515C13.5753 11.6034 13.1712 11.4694 12.756 11.4694C12.3408 11.4694 11.9367 11.6034 11.6037 11.8515C11.2708 12.0996 11.0268 12.4485 10.908 12.8463H3.93969C3.79355 12.8463 3.6534 12.9044 3.55006 13.0077C3.44673 13.111 3.38867 13.2512 3.38867 13.3973C3.38867 13.5435 3.44673 13.6836 3.55006 13.787C3.6534 13.8903 3.79355 13.9484 3.93969 13.9484H10.908C11.0268 14.3462 11.2708 14.6951 11.6037 14.9432C11.9367 15.1913 12.3408 15.3253 12.756 15.3253C13.1712 15.3253 13.5753 15.1913 13.9083 14.9432C14.2412 14.6951 14.4852 14.3462 14.604 13.9484H16.0621C16.2083 13.9484 16.3484 13.8903 16.4518 13.787C16.5551 13.6836 16.6132 13.5435 16.6132 13.3973C16.6132 13.2512 16.5551 13.111 16.4518 13.0077C16.3484 12.9044 16.2083 12.8463 16.0621 12.8463Z" fill="#FF6928"/>
</svg>
