<svg width="24" height="24" viewBox="0 0 24 24" fill="none" xmlns="http://www.w3.org/2000/svg">
<path d="M18.5455 20.9093H14.0491C14.8044 20.2349 15.5167 19.5138 16.1818 18.7502C18.6773 15.8802 20 12.8548 20 10.0002C20 7.87851 19.1571 5.84368 17.6569 4.34339C16.1566 2.8431 14.1217 2.00024 12 2.00024C9.87827 2.00024 7.84344 2.8431 6.34315 4.34339C4.84285 5.84368 4 7.87851 4 10.0002C4 12.8548 5.31909 15.8802 7.81818 18.7502C8.48328 19.5138 9.19559 20.2349 9.95091 20.9093H5.45455C5.26166 20.9093 5.07668 20.986 4.94029 21.1223C4.8039 21.2587 4.72727 21.4437 4.72727 21.6366C4.72727 21.8295 4.8039 22.0145 4.94029 22.1509C5.07668 22.2873 5.26166 22.3639 5.45455 22.3639H18.5455C18.7383 22.3639 18.9233 22.2873 19.0597 22.1509C19.1961 22.0145 19.2727 21.8295 19.2727 21.6366C19.2727 21.4437 19.1961 21.2587 19.0597 21.1223C18.9233 20.986 18.7383 20.9093 18.5455 20.9093ZM5.45455 10.0002C5.45455 8.26428 6.14415 6.59942 7.37166 5.37191C8.59918 4.1444 10.264 3.45479 12 3.45479C13.736 3.45479 15.4008 4.1444 16.6283 5.37191C17.8558 6.59942 18.5455 8.26428 18.5455 10.0002C18.5455 15.203 13.5027 19.5457 12 20.7275C10.4973 19.5457 5.45455 15.203 5.45455 10.0002ZM15.6364 10.0002C15.6364 9.28104 15.4231 8.57799 15.0235 7.97999C14.624 7.38199 14.056 6.91591 13.3916 6.64068C12.7271 6.36545 11.996 6.29344 11.2906 6.43375C10.5852 6.57406 9.93726 6.92039 9.4287 7.42895C8.92015 7.9375 8.57382 8.58544 8.43351 9.29082C8.2932 9.99621 8.36521 10.7274 8.64044 11.3918C8.91567 12.0563 9.38175 12.6242 9.97974 13.0238C10.5777 13.4233 11.2808 13.6366 12 13.6366C12.9644 13.6366 13.8893 13.2535 14.5713 12.5715C15.2532 11.8896 15.6364 10.9647 15.6364 10.0002ZM9.81818 10.0002C9.81818 9.56872 9.94614 9.14689 10.1859 8.78809C10.4256 8.42929 10.7664 8.14964 11.1651 7.98451C11.5637 7.81937 12.0024 7.77616 12.4257 7.86035C12.8489 7.94453 13.2376 8.15233 13.5428 8.45747C13.8479 8.7626 14.0557 9.15136 14.1399 9.57459C14.2241 9.99782 14.1809 10.4365 14.0157 10.8352C13.8506 11.2339 13.571 11.5746 13.2122 11.8144C12.8534 12.0541 12.4315 12.1821 12 12.1821C11.4213 12.1821 10.8664 11.9522 10.4572 11.543C10.0481 11.1339 9.81818 10.5789 9.81818 10.0002Z" fill="white"/>
</svg>
