<svg width="24" height="24" viewBox="0 0 24 24" fill="none" xmlns="http://www.w3.org/2000/svg">
<path d="M20.9077 19.9328C20.8469 20.038 20.7595 20.1255 20.6542 20.1862C20.549 20.247 20.4295 20.279 20.308 20.2789H3.69222C3.57076 20.2788 3.45146 20.2467 3.34631 20.1859C3.24116 20.1251 3.15387 20.0377 3.09319 19.9325C3.03251 19.8272 3.00058 19.7079 3.00061 19.5864C3.00064 19.465 3.03263 19.3457 3.09336 19.2405C4.41137 16.9618 6.44248 15.328 8.81282 14.5534C7.64034 13.8554 6.7294 12.7919 6.21988 11.5261C5.71037 10.2603 5.63046 8.86219 5.99242 7.54656C6.35438 6.23093 7.13819 5.0705 8.2235 4.24346C9.30881 3.41642 10.6356 2.96851 12.0001 2.96851C13.3646 2.96851 14.6914 3.41642 15.7767 4.24346C16.862 5.0705 17.6458 6.23093 18.0078 7.54656C18.3698 8.86219 18.2898 10.2603 17.7803 11.5261C17.2708 12.7919 16.3599 13.8554 15.1874 14.5534C17.5577 15.328 19.5888 16.9618 20.9068 19.2405C20.9677 19.3456 20.9999 19.465 21 19.5865C21.0002 19.708 20.9683 19.8275 20.9077 19.9328Z" fill="white"/>
</svg>
