<svg width="24" height="24" viewBox="0 0 24 24" fill="none" xmlns="http://www.w3.org/2000/svg">
<path d="M20 11.7278V20.4551C20 20.8409 19.8468 21.2109 19.574 21.4836C19.3012 21.7564 18.9312 21.9097 18.5455 21.9097H5.45455C5.06878 21.9097 4.69881 21.7564 4.42603 21.4836C4.15325 21.2109 4 20.8409 4 20.4551V11.7278C4 11.3421 4.15325 10.9721 4.42603 10.6993C4.69881 10.4265 5.06878 10.2733 5.45455 10.2733H7.63636C7.82925 10.2733 8.01423 10.3499 8.15062 10.4863C8.28701 10.6227 8.36364 10.8077 8.36364 11.0006C8.36364 11.1935 8.28701 11.3784 8.15062 11.5148C8.01423 11.6512 7.82925 11.7278 7.63636 11.7278H5.45455V20.4551H18.5455V11.7278H16.3636C16.1708 11.7278 15.9858 11.6512 15.8494 11.5148C15.713 11.3784 15.6364 11.1935 15.6364 11.0006C15.6364 10.8077 15.713 10.6227 15.8494 10.4863C15.9858 10.3499 16.1708 10.2733 16.3636 10.2733H18.5455C18.9312 10.2733 19.3012 10.4265 19.574 10.6993C19.8468 10.9721 20 11.3421 20 11.7278ZM8.87818 7.87875L11.2727 5.4833V13.9097C11.2727 14.1025 11.3494 14.2875 11.4857 14.4239C11.6221 14.5603 11.8071 14.6369 12 14.6369C12.1929 14.6369 12.3779 14.5603 12.5143 14.4239C12.6507 14.2875 12.7273 14.1025 12.7273 13.9097V5.4833L15.1218 7.87875C15.2583 8.01522 15.4434 8.09189 15.6364 8.09189C15.8294 8.09189 16.0144 8.01522 16.1509 7.87875C16.2874 7.74229 16.364 7.5572 16.364 7.36421C16.364 7.17122 16.2874 6.98613 16.1509 6.84966L12.5145 3.2133C12.447 3.14568 12.3668 3.09204 12.2785 3.05544C12.1902 3.01884 12.0956 3 12 3C11.9044 3 11.8098 3.01884 11.7215 3.05544C11.6332 3.09204 11.553 3.14568 11.4855 3.2133L7.84909 6.84966C7.71262 6.98613 7.63596 7.17122 7.63596 7.36421C7.63596 7.5572 7.71263 7.74229 7.84909 7.87875C7.98556 8.01522 8.17064 8.09189 8.36364 8.09189C8.55663 8.09189 8.74172 8.01522 8.87818 7.87875Z" fill="white"/>
</svg>
