<svg width="32" height="32" viewBox="0 0 32 32" fill="none" xmlns="http://www.w3.org/2000/svg">
<rect x="0.571429" y="0.571429" width="30.8571" height="30.8571" rx="12" fill="#1A1B1E" stroke="#2B2C31" stroke-width="1.14286"/>
<path d="M17.6706 12.1729C17.6128 12.0976 17.5502 12.0257 17.4831 11.9579C17.2334 11.7053 16.9285 11.515 16.5928 11.4022L15.4906 11.0412C15.4056 11.011 15.332 10.955 15.28 10.8809C15.2279 10.8068 15.2 10.7183 15.2 10.6275C15.2 10.5367 15.2279 10.4482 15.28 10.3741C15.332 10.3 15.4056 10.244 15.4906 10.2138L16.5928 9.8528C16.9238 9.73763 17.2239 9.54687 17.4696 9.29543C17.7086 9.05089 17.8898 8.75539 18 8.4309L18.0091 8.4034L18.3674 7.29276C18.3974 7.20715 18.453 7.13302 18.5265 7.08059C18.6 7.02816 18.6878 7 18.7779 7C18.8681 7 18.9559 7.02816 19.0294 7.08059C19.103 7.13302 19.1586 7.20715 19.1886 7.29276L19.5468 8.4034C19.6582 8.74106 19.8462 9.04789 20.0958 9.29949C20.3456 9.5511 20.6501 9.74056 20.9852 9.8528L22.0874 10.2138L22.1094 10.2193C22.1944 10.2495 22.268 10.3055 22.32 10.3796C22.3721 10.4537 22.4 10.5423 22.4 10.633C22.4 10.7238 22.3721 10.8123 22.32 10.8864C22.268 10.9605 22.1944 11.0165 22.1094 11.0468L21.0072 11.4077C20.6722 11.52 20.3676 11.7094 20.1179 11.961C19.8682 12.2126 19.6802 12.5195 19.5688 12.8571L19.2106 13.9678C19.2074 13.977 19.2038 13.9861 19.2 13.995C19.1684 14.0691 19.1171 14.1331 19.0515 14.1799C18.9779 14.2324 18.8901 14.2605 18.8 14.2605C18.7099 14.2605 18.6221 14.2324 18.5485 14.1799C18.475 14.1275 18.4194 14.0534 18.3894 13.9678L18.0312 12.8571C17.9502 12.6094 17.8281 12.3781 17.6706 12.1729ZM23.8263 15.2392L23.214 15.0387C23.0278 14.9763 22.8586 14.8711 22.7199 14.7313C22.5812 14.5915 22.4767 14.4211 22.4149 14.2335L22.2158 13.6164C22.1992 13.5689 22.1683 13.5277 22.1274 13.4986C22.0866 13.4694 22.0378 13.4538 21.9878 13.4538C21.9377 13.4538 21.8889 13.4694 21.848 13.4986C21.8072 13.5277 21.7763 13.5689 21.7597 13.6164L21.5606 14.2335C21.5 14.4197 21.3974 14.5893 21.2609 14.729C21.1244 14.8687 20.9577 14.9747 20.7738 15.0387L20.1614 15.2392C20.1142 15.256 20.0734 15.2871 20.0444 15.3283C20.0155 15.3694 20 15.4186 20 15.4691C20 15.5195 20.0155 15.5687 20.0444 15.6098C20.0734 15.651 20.1142 15.6821 20.1614 15.6989L20.7738 15.8995C20.9602 15.9621 21.1296 16.0678 21.2684 16.2082C21.4071 16.3485 21.5114 16.5196 21.5729 16.7077L21.7719 17.3248C21.7886 17.3723 21.8194 17.4135 21.8603 17.4426C21.9011 17.4718 21.9499 17.4874 22 17.4874C22.0501 17.4874 22.0989 17.4718 22.1397 17.4426C22.1806 17.4135 22.2114 17.3723 22.2281 17.3248L22.4271 16.7077C22.489 16.5201 22.5934 16.3497 22.7322 16.2099C22.8709 16.0702 23.0401 15.9649 23.2262 15.9025L23.8386 15.702C23.8858 15.6852 23.9266 15.6541 23.9556 15.6129C23.9845 15.5718 24 15.5226 24 15.4721C24 15.4217 23.9845 15.3725 23.9556 15.3314C23.9266 15.2902 23.8858 15.2591 23.8386 15.2423L23.8263 15.2392ZM14.931 9.58066C14.5044 9.47577 14.0586 9.42017 13.6 9.42017C10.5072 9.42017 8 11.9485 8 15.0672C8 18.186 10.5072 20.7143 13.6 20.7143C14.8578 20.7143 16.0189 20.2961 16.9538 19.5901L21.0343 23.7049C21.3467 24.0199 21.8533 24.0199 22.1657 23.7049C22.4781 23.3899 22.4781 22.8791 22.1657 22.564L18.0851 18.4492C18.7853 17.5064 19.2 16.3356 19.2 15.0672L19.1998 15.0284C19.0625 15.0818 18.916 15.1086 18.768 15.1068C18.2411 15.1052 17.6902 14.7622 17.52 14.2597L17.5194 14.2576C17.5722 14.5191 17.6 14.7899 17.6 15.0672C17.6 17.2949 15.8091 19.1009 13.6 19.1009C11.3909 19.1009 9.6 17.2949 9.6 15.0672C9.6 12.8395 11.3909 11.0336 13.6 11.0336C13.916 11.0336 14.2235 11.0706 14.5184 11.1404C14.443 10.971 14.4006 10.7878 14.4 10.6053C14.4011 10.1878 14.6054 9.81199 14.931 9.58066Z" fill="#D9DADD"/>
</svg>
