<svg width="28" height="28" viewBox="0 0 28 28" fill="none" xmlns="http://www.w3.org/2000/svg">
<g filter="url(#filter0_f_2096_26761)">
<path fill-rule="evenodd" clip-rule="evenodd" d="M11.95 3.34759L11.9104 3.53409C11.837 3.885 11.9142 4.22644 12.0931 4.49833C7.24203 4.96091 3.5 7.93076 3.5 11.5254C3.5 13.1023 4.22005 14.5589 5.43789 15.7364C5.39126 16.0876 5.36719 16.446 5.36719 16.8101C5.36719 21.2639 8.97031 24.8745 13.415 24.8745C17.8596 24.8745 21.4628 21.2639 21.4628 16.8101C21.4628 16.447 21.4388 16.0896 21.3924 15.7393C22.6121 14.5613 23.3333 13.1036 23.3333 11.5254C23.3333 7.93135 19.5925 4.96189 14.7427 4.49856C14.9262 4.21957 15.0023 3.86766 14.9187 3.50855L14.8753 3.32204C14.7412 2.74337 14.2251 2.33331 13.6311 2.33331H13.2006C12.5963 2.33331 12.0739 2.75614 11.95 3.34759Z" fill="url(#paint0_linear_2096_26761)"/>
</g>
<path fill-rule="evenodd" clip-rule="evenodd" d="M11.9104 3.53409L11.95 3.34759C12.0739 2.75614 12.5963 2.33331 13.2006 2.33331H13.6311C14.2251 2.33331 14.7412 2.74337 14.8753 3.32204L14.9187 3.50855C15.0023 3.86766 14.9262 4.21957 14.7427 4.49856C19.5925 4.96189 23.3333 7.93135 23.3333 11.5254C23.3333 13.1036 22.6121 14.5613 21.3924 15.7393C21.4388 16.0896 21.4628 16.447 21.4628 16.8101C21.4628 21.2639 17.8596 24.8745 13.415 24.8745C8.97031 24.8745 5.36719 21.2639 5.36719 16.8101C5.36719 16.446 5.39126 16.0876 5.43789 15.7364C4.22005 14.5589 3.5 13.1023 3.5 11.5254C3.5 7.93076 7.24203 4.96091 12.0931 4.49833C11.9142 4.22644 11.837 3.885 11.9104 3.53409Z" fill="#FFBD99"/>
<defs>
<filter id="filter0_f_2096_26761" x="2.15137" y="0.984686" width="22.5312" height="25.2384" filterUnits="userSpaceOnUse" color-interpolation-filters="sRGB">
<feFlood flood-opacity="0" result="BackgroundImageFix"/>
<feBlend mode="normal" in="SourceGraphic" in2="BackgroundImageFix" result="shape"/>
<feGaussianBlur stdDeviation="0.674314" result="effect1_foregroundBlur_2096_26761"/>
</filter>
<linearGradient id="paint0_linear_2096_26761" x1="13.4167" y1="2.33331" x2="8.34098" y2="26.0201" gradientUnits="userSpaceOnUse">
<stop stop-color="#F24B00"/>
<stop offset="1" stop-color="#FFAA7C"/>
</linearGradient>
</defs>
</svg>
