<svg width="58" height="48" viewBox="0 0 58 48" fill="none" xmlns="http://www.w3.org/2000/svg">
<g filter="url(#filter0_f_2096_26661)">
<path d="M14.5607 24.9018C13.9749 24.3395 13.0251 24.3395 12.4393 24.9018C11.8536 25.4642 11.8536 26.3758 12.4393 26.9382L21.4394 35.5782C22.0251 36.1406 22.9749 36.1406 23.5607 35.5782L45.5606 14.4582C46.1465 13.8959 46.1465 12.9841 45.5606 12.4218C44.9748 11.8594 44.0252 11.8594 43.4394 12.4218L22.5 32.5235L14.5607 24.9018Z" fill="#37383E" fill-opacity="0.8"/>
</g>
<path d="M14.5607 24.9018C13.9749 24.3395 13.0251 24.3395 12.4393 24.9018C11.8536 25.4642 11.8536 26.3758 12.4393 26.9382L21.4394 35.5782C22.0251 36.1406 22.9749 36.1406 23.5607 35.5782L45.5606 14.4582C46.1465 13.8959 46.1465 12.9841 45.5606 12.4218C44.9748 11.8594 44.0252 11.8594 43.4394 12.4218L22.5 32.5235L14.5607 24.9018Z" fill="white"/>
<defs>
<filter id="filter0_f_2096_26661" x="0" y="0" width="58" height="48" filterUnits="userSpaceOnUse" color-interpolation-filters="sRGB">
<feFlood flood-opacity="0" result="BackgroundImageFix"/>
<feBlend mode="normal" in="SourceGraphic" in2="BackgroundImageFix" result="shape"/>
<feGaussianBlur stdDeviation="6" result="effect1_foregroundBlur_2096_26661"/>
</filter>
</defs>
</svg>
