<svg width="48" height="57" viewBox="0 0 48 57" fill="none" xmlns="http://www.w3.org/2000/svg">
<g filter="url(#filter0_f_2096_26813)">
<path d="M21.5319 25.9534L24.4722 25.9961C25.4239 25.9677 26.2833 25.783 27.0504 25.4421C27.8316 25.087 28.4637 24.5685 28.9467 23.8867C29.4296 23.2049 29.7279 22.381 29.8416 21.4151C29.941 20.6338 29.87 19.952 29.6285 19.3696C29.4012 18.773 29.0248 18.3043 28.4992 17.9634C27.9737 17.6225 27.3131 17.4449 26.5177 17.4307C25.7364 17.4165 25.0262 17.5657 24.387 17.8782C23.762 18.1765 23.2364 18.6026 22.8103 19.1566C22.3842 19.7105 22.1001 20.364 21.958 21.1168L15.9495 21.1594C16.0631 19.327 16.6455 17.7716 17.6967 16.4932C18.762 15.2148 20.0901 14.2489 21.681 13.5955C23.272 12.9421 24.9268 12.6225 26.6455 12.6367C28.4069 12.6651 30.012 13.0131 31.4609 13.6807C32.9097 14.3341 34.0461 15.3071 34.87 16.5998C35.6938 17.8782 36.0418 19.462 35.914 21.3512C35.843 22.658 35.4808 23.8086 34.8274 24.8029C34.1739 25.783 33.3359 26.5998 32.3131 27.2532C31.3046 27.9066 30.2038 28.4037 29.0106 28.7446C27.8316 29.0713 26.6526 29.2347 25.4737 29.2347L21.0205 29.2134L21.5319 25.9534ZM20.8075 30.6196L21.3188 27.4449L25.1327 27.4662C26.3401 27.4946 27.4978 27.6651 28.6058 27.9776C29.7279 28.2901 30.7151 28.7588 31.5674 29.3838C32.4339 29.9946 33.1015 30.7901 33.5702 31.7702C34.039 32.7503 34.2379 33.9151 34.1668 35.2645C34.0674 36.7986 33.6697 38.1552 32.9737 39.3341C32.2918 40.5131 31.397 41.4932 30.289 42.2745C29.1952 43.0557 27.9666 43.6381 26.6029 44.0216C25.2535 44.4052 23.8685 44.5898 22.4481 44.5756C21.0987 44.5472 19.8487 44.327 18.6981 43.9151C17.5617 43.489 16.5674 42.8924 15.7151 42.1253C14.8629 41.3583 14.2095 40.4279 13.7549 39.3341C13.3004 38.2404 13.0802 36.9975 13.0944 35.6054L19.039 35.6267C19.039 36.4222 19.1881 37.1253 19.4864 37.7361C19.7847 38.3469 20.218 38.8299 20.7862 39.185C21.3685 39.5401 22.0717 39.7248 22.8955 39.739C23.8188 39.7532 24.664 39.5756 25.431 39.2063C26.1981 38.837 26.8231 38.3114 27.306 37.6296C27.8032 36.9336 28.1086 36.1239 28.2222 35.2006C28.3501 34.2347 28.272 33.425 27.9879 32.7716C27.718 32.104 27.2705 31.5927 26.6455 31.2375C26.0205 30.8682 25.2393 30.6694 24.3018 30.6409L20.8075 30.6196Z" fill="#37383E" fill-opacity="0.8"/>
</g>
<path d="M21.528 25.9534L24.4683 25.9961C25.42 25.9677 26.2794 25.783 27.0465 25.4421C27.8277 25.087 28.4598 24.5685 28.9428 23.8867C29.4257 23.2049 29.724 22.381 29.8377 21.4151C29.9371 20.6338 29.8661 19.952 29.6246 19.3696C29.3973 18.773 29.0209 18.3043 28.4953 17.9634C27.9698 17.6225 27.3092 17.4449 26.5138 17.4307C25.7325 17.4165 25.0223 17.5657 24.3831 17.8782C23.7581 18.1765 23.2325 18.6026 22.8064 19.1566C22.3803 19.7105 22.0962 20.364 21.9541 21.1168L15.9456 21.1594C16.0592 19.327 16.6416 17.7716 17.6928 16.4932C18.7581 15.2148 20.0862 14.2489 21.6771 13.5955C23.268 12.9421 24.9229 12.6225 26.6416 12.6367C28.403 12.6651 30.0081 13.0131 31.457 13.6807C32.9058 14.3341 34.0422 15.3071 34.8661 16.5998C35.6899 17.8782 36.0379 19.462 35.9101 21.3512C35.8391 22.658 35.4769 23.8086 34.8234 24.8029C34.17 25.783 33.332 26.5998 32.3092 27.2532C31.3007 27.9066 30.1999 28.4037 29.0067 28.7446C27.8277 29.0713 26.6487 29.2347 25.4698 29.2347L21.0166 29.2134L21.528 25.9534ZM20.8036 30.6196L21.3149 27.4449L25.1288 27.4662C26.3362 27.4946 27.4939 27.6651 28.6019 27.9776C29.724 28.2901 30.7112 28.7588 31.5635 29.3838C32.43 29.9946 33.0976 30.7901 33.5663 31.7702C34.0351 32.7503 34.234 33.9151 34.1629 35.2645C34.0635 36.7986 33.6658 38.1552 32.9698 39.3341C32.2879 40.5131 31.393 41.4932 30.2851 42.2745C29.1913 43.0557 27.9626 43.6381 26.599 44.0216C25.2496 44.4052 23.8646 44.5898 22.4442 44.5756C21.0948 44.5472 19.8448 44.327 18.6942 43.9151C17.5578 43.489 16.5635 42.8924 15.7112 42.1253C14.859 41.3583 14.2055 40.4279 13.751 39.3341C13.2965 38.2404 13.0763 36.9975 13.0905 35.6054L19.0351 35.6267C19.0351 36.4222 19.1842 37.1253 19.4825 37.7361C19.7808 38.3469 20.2141 38.8299 20.7823 39.185C21.3646 39.5401 22.0678 39.7248 22.8916 39.739C23.8149 39.7532 24.6601 39.5756 25.4271 39.2063C26.1942 38.837 26.8192 38.3114 27.3021 37.6296C27.7993 36.9336 28.1047 36.1239 28.2183 35.2006C28.3462 34.2347 28.268 33.425 27.984 32.7716C27.7141 32.104 27.2666 31.5927 26.6416 31.2375C26.0166 30.8682 25.2354 30.6694 24.2979 30.6409L20.8036 30.6196Z" fill="white"/>
<defs>
<filter id="filter0_f_2096_26813" x="1.09375" y="0.63623" width="46.8477" height="55.9399" filterUnits="userSpaceOnUse" color-interpolation-filters="sRGB">
<feFlood flood-opacity="0" result="BackgroundImageFix"/>
<feBlend mode="normal" in="SourceGraphic" in2="BackgroundImageFix" result="shape"/>
<feGaussianBlur stdDeviation="6" result="effect1_foregroundBlur_2096_26813"/>
</filter>
</defs>
</svg>
