<svg width="100" height="100" viewBox="0 0 100 100" fill="none" xmlns="http://www.w3.org/2000/svg">
<circle cx="50" cy="50" r="50" fill="#323339"/>
<path d="M79.4313 55.1178C83.3654 44.8352 75.6395 32.1974 61.9883 25.8453C62.3901 25.3856 62.6891 24.824 62.831 24.1816L63.1501 22.7521C63.5666 20.8973 62.5413 19.028 60.761 18.3762C60.7456 18.3705 60.7353 18.3668 60.7198 18.3611L59.8053 18.0379C58.2509 17.4863 56.5125 18.011 55.5222 19.329L54.6132 20.5367C54.0432 21.2966 53.8058 22.1841 53.8605 23.0386C40.4012 19.9079 27.6646 24.2541 23.9725 33.9075C23.4922 35.1554 23.1982 36.4366 23.0544 37.7377C22.6751 39.5069 22.6383 42.6036 24.0723 45.7312C24.33 46.4616 24.6276 47.1949 24.9757 47.9176C21.8627 53.9493 21.3405 61.2564 24.1541 68.0109C26.4448 73.5003 30.5454 77.6801 35.4798 80.1403L39.7878 81.7935C44.7471 83.1659 50.1827 82.9504 55.3034 80.8223C62.4037 77.861 67.3133 71.8628 69.1567 64.9636C73.997 62.9954 77.7061 59.6386 79.4365 55.1197L79.4313 55.1178ZM66.4556 58.3319L63.1574 59.6743L62.242 63.1145C60.8948 68.1647 57.3598 72.2097 52.5461 74.2167C49.0678 75.6682 45.3165 75.9052 41.6934 74.8996L40.1303 74.4673L38.6746 73.7418C35.1089 71.9577 32.2898 68.9474 30.7526 65.2569C29.0469 61.1662 29.0499 56.6158 30.7133 52.5509C31.6415 53.0599 32.6371 53.512 33.7177 53.9076C38.6779 55.7238 45.2427 56.3768 53.3605 55.848L52.8984 48.7115C46.7048 49.1163 35.6932 49.07 31.535 44.2506C31.1881 43.8435 30.9175 43.4351 30.7058 43.025C30.0771 41.1084 29.778 38.7698 30.6637 36.4624C32.9629 30.4537 42.2421 27.6775 52.2543 30.0072L55.7117 30.8121L58.9783 32.3291C69.05 37.0145 75.2333 46.0882 72.7542 52.5563C71.5512 55.6986 68.6645 57.4309 66.4608 58.3338L66.4556 58.3319Z" fill="#5E6068"/>
</svg>
