<svg width="28" height="28" viewBox="0 0 28 28" fill="none" xmlns="http://www.w3.org/2000/svg">
<path d="M14.3726 4.41797C15.1066 4.42643 15.8377 4.51123 16.5541 4.67101C16.8668 4.74076 17.1007 5.00148 17.1362 5.31993L17.3064 6.84678C17.3835 7.54783 17.9754 8.07881 18.681 8.07955C18.8707 8.07985 19.0583 8.04035 19.2336 7.9628L20.6342 7.34753C20.9255 7.21956 21.2659 7.28933 21.4833 7.52159C22.4955 8.60261 23.2493 9.89912 23.6881 11.3135C23.7827 11.6185 23.6738 11.95 23.4168 12.1395L22.1753 13.0546C21.8211 13.3148 21.612 13.728 21.612 14.1675C21.612 14.6069 21.8211 15.0201 22.1761 15.2809L23.4186 16.1963C23.6757 16.3857 23.7847 16.7172 23.6901 17.0223C23.2515 18.4365 22.4981 19.7329 21.4865 20.8141C21.2693 21.0463 20.9292 21.1163 20.6379 20.9886L19.2316 20.3725C18.8292 20.1964 18.3672 20.2222 17.9869 20.442C17.6067 20.6617 17.3537 21.0492 17.3054 21.4857L17.1363 23.0124C17.1014 23.3272 16.8726 23.5862 16.5644 23.6595C15.116 24.0041 13.6069 24.0041 12.1584 23.6595C11.8503 23.5862 11.6214 23.3272 11.5865 23.0124L11.4177 21.488C11.3681 21.0523 11.1147 20.666 10.7348 20.447C10.3549 20.228 9.89355 20.2023 9.49255 20.3774L8.08592 20.9936C7.79457 21.1213 7.45438 21.0513 7.23713 20.8189C6.22497 19.7365 5.47154 18.4385 5.03355 17.0228C4.93921 16.7179 5.04821 16.3866 5.3052 16.1973L6.54853 15.2813C6.90267 15.0211 7.11182 14.6079 7.11182 14.1685C7.11182 13.729 6.90267 13.3158 6.54806 13.0553L5.30551 12.1408C5.04815 11.9514 4.93905 11.6197 5.03372 11.3145C5.47247 9.90012 6.22629 8.60361 7.23848 7.52259C7.45594 7.29033 7.79629 7.22056 8.08759 7.34853L9.48797 7.96369C9.89091 8.14053 10.3542 8.11382 10.7361 7.89066C11.1164 7.67006 11.3696 7.28219 11.4185 6.84561L11.5886 5.31993C11.6241 5.00132 11.8582 4.74051 12.1712 4.67091C12.8885 4.51139 13.6204 4.42662 14.3726 4.41797ZM14.3601 11.1679C12.7032 11.1679 11.3601 12.5111 11.3601 14.168C11.3601 15.8248 12.7032 17.168 14.3601 17.168C16.0169 17.168 17.3601 15.8248 17.3601 14.168C17.3601 12.5111 16.0169 11.1679 14.3601 11.1679Z" fill="white"/>
</svg>
