<svg width="24" height="24" viewBox="0 0 24 24" fill="none" xmlns="http://www.w3.org/2000/svg">
<path d="M4.31445 12.3301C4.31445 12.0697 4.4056 11.8483 4.58789 11.666C4.77669 11.4837 4.99805 11.3926 5.25195 11.3926H11.0625V5.58203C11.0625 5.33464 11.1536 5.11654 11.3359 4.92773C11.5182 4.73893 11.7396 4.64453 12 4.64453C12.2604 4.64453 12.4785 4.73893 12.6543 4.92773C12.8366 5.11654 12.9277 5.33464 12.9277 5.58203V11.3926H18.748C18.9954 11.3926 19.2103 11.4837 19.3926 11.666C19.5814 11.8483 19.6758 12.0697 19.6758 12.3301C19.6758 12.5905 19.5814 12.8118 19.3926 12.9941C19.2103 13.1764 18.9954 13.2676 18.748 13.2676H12.9277V19.0781C12.9277 19.332 12.8366 19.5501 12.6543 19.7324C12.4785 19.9147 12.2604 20.0059 12 20.0059C11.7396 20.0059 11.5182 19.9147 11.3359 19.7324C11.1536 19.5501 11.0625 19.332 11.0625 19.0781V13.2676H5.25195C4.99805 13.2676 4.77669 13.1764 4.58789 12.9941C4.4056 12.8118 4.31445 12.5905 4.31445 12.3301Z" fill="#F1F1F5"/>
</svg>
