<svg width="24" height="24" viewBox="0 0 24 24" fill="none" xmlns="http://www.w3.org/2000/svg">
<path d="M12 4C12.3038 4 12.5548 4.22572 12.5946 4.51858L12.6 4.6L12.5993 6.03017C15.4342 6.31006 17.6899 8.56575 17.9706 11.402L18 11.4H19.4C19.7314 11.4 20 11.6686 20 12C20 12.3038 19.7742 12.5548 19.4814 12.5946L19.4 12.6L17.9694 12.5992C17.6899 15.4342 15.4342 17.6899 12.598 17.9706L12.6 18V19.4C12.6 19.7314 12.3314 20 12 20C11.6962 20 11.4452 19.7742 11.4054 19.4814L11.4 19.4L11.4008 17.9694C8.56575 17.6899 6.31006 15.4342 6.02942 12.598L6 12.6H4.6C4.26863 12.6 4 12.3314 4 12C4 11.6962 4.22572 11.4452 4.51858 11.4054L4.6 11.4L6.03017 11.4007C6.31006 8.56575 8.56575 6.31006 11.402 6.02942L11.4 6V4.6C11.4 4.26863 11.6686 4 12 4ZM12 7.2C9.34903 7.2 7.2 9.34903 7.2 12C7.2 14.651 9.34903 16.8 12 16.8C14.651 16.8 16.8 14.651 16.8 12C16.8 9.34903 14.651 7.2 12 7.2ZM12 8.8C13.7673 8.8 15.2 10.2327 15.2 12C15.2 13.7673 13.7673 15.2 12 15.2C10.2327 15.2 8.8 13.7673 8.8 12C8.8 10.2327 10.2327 8.8 12 8.8Z" fill="#5E6068"/>
</svg>
