<svg width="24" height="24" viewBox="0 0 24 24" fill="none" xmlns="http://www.w3.org/2000/svg">
<path d="M13.9121 19.2559C13.9121 19.6139 13.8242 19.9427 13.6484 20.2422C13.4727 20.5352 13.2383 20.7695 12.9453 20.9453C12.6523 21.1211 12.3236 21.209 11.959 21.209C11.6009 21.209 11.2754 21.1211 10.9824 20.9453C10.6829 20.7695 10.4453 20.5352 10.2695 20.2422C10.0938 19.9427 10.0059 19.6139 10.0059 19.2559C10.0059 18.7025 10.1979 18.2337 10.582 17.8496C10.9596 17.4655 11.4186 17.2734 11.959 17.2734C12.3236 17.2734 12.6523 17.3646 12.9453 17.5469C13.2383 17.7227 13.4727 17.9603 13.6484 18.2598C13.8242 18.5527 13.9121 18.8848 13.9121 19.2559ZM13.9121 12C13.9121 12.3581 13.8242 12.6868 13.6484 12.9863C13.4727 13.2793 13.2383 13.5137 12.9453 13.6895C12.6523 13.8587 12.3236 13.9434 11.959 13.9434C11.6009 13.9434 11.2754 13.8587 10.9824 13.6895C10.6829 13.5137 10.4453 13.2793 10.2695 12.9863C10.0938 12.6868 10.0059 12.3581 10.0059 12C10.0059 11.4596 10.1979 11.0007 10.582 10.623C10.9596 10.2389 11.4186 10.0469 11.959 10.0469C12.3236 10.0469 12.6523 10.1348 12.9453 10.3105C13.2383 10.4863 13.4727 10.7207 13.6484 11.0137C13.8242 11.3066 13.9121 11.6354 13.9121 12ZM13.9121 4.74414C13.9121 5.10872 13.8242 5.44076 13.6484 5.74023C13.4727 6.03971 13.2383 6.27734 12.9453 6.45312C12.6523 6.62891 12.3236 6.7168 11.959 6.7168C11.6009 6.7168 11.2754 6.62891 10.9824 6.45312C10.6829 6.27734 10.4453 6.03971 10.2695 5.74023C10.0938 5.44076 10.0059 5.10872 10.0059 4.74414C10.0059 4.20378 10.1979 3.74479 10.582 3.36719C10.9596 2.98307 11.4186 2.79102 11.959 2.79102C12.3236 2.79102 12.6523 2.87891 12.9453 3.05469C13.2383 3.23047 13.4727 3.4681 13.6484 3.76758C13.8242 4.06055 13.9121 4.38607 13.9121 4.74414Z" fill="#F1F1F5"/>
</svg>
