<svg width="36" height="36" viewBox="0 0 36 36" fill="none" xmlns="http://www.w3.org/2000/svg">
<g filter="url(#filter0_d_1_862)">
<path d="M8.36133 21.3418C7.86003 21.3418 7.40885 21.2233 7.00781 20.9863C6.60677 20.7402 6.2832 20.4167 6.03711 20.0156C5.80013 19.6146 5.68164 19.168 5.68164 18.6758C5.68164 18.1836 5.80013 17.737 6.03711 17.3359C6.2832 16.9349 6.60677 16.6159 7.00781 16.3789C7.40885 16.1328 7.86003 16.0098 8.36133 16.0098C9.10872 16.0098 9.74219 16.2695 10.2617 16.7891C10.7812 17.3086 11.041 17.9375 11.041 18.6758C11.041 19.168 10.918 19.6146 10.6719 20.0156C10.4349 20.4167 10.1113 20.7402 9.70117 20.9863C9.30013 21.2233 8.85352 21.3418 8.36133 21.3418ZM18 21.3418C17.4987 21.3418 17.0475 21.2233 16.6465 20.9863C16.2546 20.7402 15.9355 20.4167 15.6895 20.0156C15.4525 19.6146 15.334 19.168 15.334 18.6758C15.334 18.1836 15.4525 17.737 15.6895 17.3359C15.9355 16.9349 16.2546 16.6159 16.6465 16.3789C17.0475 16.1328 17.4987 16.0098 18 16.0098C18.7383 16.0098 19.3626 16.2695 19.873 16.7891C20.3926 17.3086 20.6523 17.9375 20.6523 18.6758C20.6523 19.168 20.5293 19.6146 20.2832 20.0156C20.0462 20.4167 19.7272 20.7402 19.3262 20.9863C18.9251 21.2233 18.4831 21.3418 18 21.3418ZM27.625 21.3418C27.1328 21.3418 26.6816 21.2233 26.2715 20.9863C25.8613 20.7402 25.5378 20.4167 25.3008 20.0156C25.0638 19.6146 24.9453 19.168 24.9453 18.6758C24.9453 18.1836 25.0638 17.737 25.3008 17.3359C25.5378 16.9349 25.8613 16.6159 26.2715 16.3789C26.6816 16.1328 27.1328 16.0098 27.625 16.0098C28.3724 16.0098 29.0059 16.2695 29.5254 16.7891C30.0449 17.3086 30.3047 17.9375 30.3047 18.6758C30.3047 19.168 30.1816 19.6146 29.9355 20.0156C29.6986 20.4167 29.375 20.7402 28.9648 20.9863C28.5638 21.2233 28.1172 21.3418 27.625 21.3418Z" fill="#F1F1F5"/>
</g>
<defs>
<filter id="filter0_d_1_862" x="1.68164" y="16.0098" width="32.623" height="13.332" filterUnits="userSpaceOnUse" color-interpolation-filters="sRGB">
<feFlood flood-opacity="0" result="BackgroundImageFix"/>
<feColorMatrix in="SourceAlpha" type="matrix" values="0 0 0 0 0 0 0 0 0 0 0 0 0 0 0 0 0 0 127 0" result="hardAlpha"/>
<feOffset dy="4"/>
<feGaussianBlur stdDeviation="2"/>
<feComposite in2="hardAlpha" operator="out"/>
<feColorMatrix type="matrix" values="0 0 0 0 0 0 0 0 0 0 0 0 0 0 0 0 0 0 0.16 0"/>
<feBlend mode="normal" in2="BackgroundImageFix" result="effect1_dropShadow_1_862"/>
<feBlend mode="normal" in="SourceGraphic" in2="effect1_dropShadow_1_862" result="shape"/>
</filter>
</defs>
</svg>
