<svg width="78" height="78" viewBox="0 0 78 78" fill="none" xmlns="http://www.w3.org/2000/svg">
<rect width="78" height="78" rx="6" fill="#2B2C31"/>
<path d="M54.125 23.8748V55.4998C54.125 55.8645 53.9801 56.2143 53.7223 56.4721C53.4644 56.73 53.1147 56.8748 52.75 56.8748C52.3853 56.8748 52.0356 56.73 51.7777 56.4721C51.5199 56.2143 51.375 55.8645 51.375 55.4998V47.2498H43.125C42.7603 47.2498 42.4106 47.105 42.1527 46.8471C41.8949 46.5893 41.75 46.2395 41.75 45.8748C41.8138 42.5812 42.2299 39.3038 42.9909 36.0986C44.6719 29.1394 47.8584 24.4747 52.2086 22.6116C52.4177 22.522 52.6457 22.4857 52.8723 22.5059C53.0988 22.5262 53.3169 22.6023 53.5068 22.7275C53.6967 22.8527 53.8526 23.023 53.9605 23.2233C54.0684 23.4235 54.1249 23.6474 54.125 23.8748ZM37.6061 23.6497C37.5792 23.4691 37.5166 23.2958 37.4219 23.1397C37.3273 22.9836 37.2025 22.8479 37.0549 22.7405C36.9072 22.6332 36.7397 22.5563 36.562 22.5143C36.3844 22.4724 36.2001 22.4662 36.0201 22.4962C35.84 22.5263 35.6677 22.5918 35.5133 22.6891C35.3588 22.7864 35.2253 22.9135 35.1205 23.0629C35.0156 23.2124 34.9416 23.3812 34.9027 23.5595C34.8638 23.7379 34.8608 23.9222 34.8939 24.1017L36.2311 32.1248H32.125V23.8748C32.125 23.5102 31.9801 23.1604 31.7223 22.9026C31.4644 22.6447 31.1147 22.4998 30.75 22.4998C30.3853 22.4998 30.0356 22.6447 29.7777 22.9026C29.5199 23.1604 29.375 23.5102 29.375 23.8748V32.1248H25.2689L26.6061 24.1017C26.6392 23.9222 26.6362 23.7379 26.5973 23.5595C26.5584 23.3812 26.4844 23.2124 26.3795 23.0629C26.2747 22.9135 26.1412 22.7864 25.9867 22.6891C25.8323 22.5918 25.66 22.5263 25.4799 22.4962C25.2998 22.4662 25.1156 22.4724 24.938 22.5143C24.7603 22.5563 24.5928 22.6332 24.4451 22.7405C24.2975 22.8479 24.1727 22.9836 24.0781 23.1397C23.9834 23.2958 23.9208 23.4691 23.8939 23.6497L22.5189 31.8997C22.5066 31.9741 22.5002 32.0494 22.5 32.1248C22.5027 34.0736 23.1942 35.9586 24.4523 37.4469C25.7103 38.9351 27.4539 39.9308 29.375 40.258V55.4998C29.375 55.8645 29.5199 56.2143 29.7777 56.4721C30.0356 56.73 30.3853 56.8748 30.75 56.8748C31.1147 56.8748 31.4644 56.73 31.7223 56.4721C31.9801 56.2143 32.125 55.8645 32.125 55.4998V40.258C34.0461 39.9308 35.7897 38.9351 37.0477 37.4469C38.3058 35.9586 38.9973 34.0736 39 32.1248C38.9998 32.0494 38.9934 31.9741 38.9811 31.8997L37.6061 23.6497Z" fill="#37383E"/>
</svg>
