<svg width="24" height="24" viewBox="0 0 24 24" fill="none" xmlns="http://www.w3.org/2000/svg">
<circle cx="12" cy="12" r="7" fill="#C5C6CB"/>
<path d="M12 3C16.9705 3 21 7.02943 21 12C21 16.9705 16.9705 21 12 21C7.02943 21 3 16.9705 3 12C3 7.02943 7.02943 3 12 3ZM15.1773 8.8227L15.1016 8.75734C14.8667 8.58306 14.5443 8.58091 14.3072 8.75089L14.2227 8.8227L12 11.0451L9.7773 8.8227L9.70159 8.75734C9.4667 8.58306 9.14431 8.58091 8.90726 8.75089L8.8227 8.8227L8.75734 8.89841C8.58306 9.1333 8.58091 9.45569 8.75089 9.69274L8.8227 9.7773L11.0451 12L8.8227 14.2227L8.75734 14.2984C8.58306 14.5333 8.58091 14.8557 8.75089 15.0928L8.8227 15.1773L8.89841 15.2426C9.1333 15.4169 9.45569 15.4191 9.69274 15.2491L9.7773 15.1773L12 12.9549L14.2227 15.1773L14.2984 15.2426C14.5333 15.4169 14.8557 15.4191 15.0928 15.2491L15.1773 15.1773L15.2426 15.1016C15.4169 14.8667 15.4191 14.5443 15.2491 14.3072L15.1773 14.2227L12.9549 12L15.1773 9.7773L15.2426 9.70159C15.4169 9.4667 15.4191 9.14431 15.2491 8.90726L15.1773 8.8227Z" fill="#5E6068"/>
</svg>
