<svg width="21" height="30" viewBox="0 0 21 30" fill="none" xmlns="http://www.w3.org/2000/svg">
<path d="M7.73497 12.7074L10.4303 12.7465C11.3027 12.7205 12.0904 12.5512 12.7936 12.2387C13.5097 11.9132 14.0891 11.4379 14.5318 10.8129C14.9746 10.1879 15.248 9.43271 15.3522 8.54729C15.4433 7.83114 15.3782 7.20614 15.1568 6.67229C14.9485 6.12542 14.6035 5.69573 14.1217 5.38323C13.6399 5.07073 13.0344 4.90797 12.3053 4.89495C11.5891 4.88193 10.9381 5.01864 10.3522 5.3051C9.77924 5.57854 9.29747 5.96917 8.90684 6.47698C8.51622 6.98479 8.2558 7.58375 8.12559 8.27385L2.61778 8.31292C2.72195 6.63323 3.2558 5.20745 4.21934 4.03557C5.1959 2.8637 6.41335 1.97828 7.87169 1.37932C9.33002 0.780364 10.8469 0.487395 12.4225 0.500416C14.0371 0.526457 15.5084 0.845468 16.8365 1.45745C18.1647 2.05641 19.2063 2.94833 19.9615 4.13323C20.7167 5.3051 21.0357 6.75693 20.9186 8.4887C20.8535 9.68661 20.5214 10.7413 19.9225 11.6528C19.3235 12.5512 18.5553 13.2999 17.6178 13.8989C16.6933 14.4978 15.6842 14.9535 14.5904 15.266C13.5097 15.5655 12.429 15.7153 11.3482 15.7153L7.26622 15.6957L7.73497 12.7074ZM7.0709 16.9848L7.53965 14.0746L11.0357 14.0942C12.1425 14.1202 13.2037 14.2765 14.2193 14.5629C15.248 14.8494 16.1529 15.2791 16.9342 15.852C17.7285 16.4119 18.3404 17.141 18.7701 18.0395C19.1998 18.9379 19.3821 20.0056 19.317 21.2426C19.2259 22.6489 18.8613 23.8923 18.2232 24.9731C17.5982 26.0538 16.7779 26.9522 15.7623 27.6684C14.7597 28.3845 13.6334 28.9184 12.3834 29.2699C11.1464 29.6215 9.87689 29.7908 8.57481 29.7778C7.33783 29.7517 6.192 29.5499 5.13731 29.1723C4.09564 28.7817 3.18419 28.2348 2.40294 27.5317C1.62169 26.8285 1.02273 25.9757 0.606061 24.9731C0.189394 23.9705 -0.012429 22.8311 0.000591856 21.5551L5.44981 21.5746C5.44981 22.3038 5.58653 22.9483 5.85997 23.5082C6.1334 24.0681 6.53054 24.5108 7.05137 24.8364C7.58523 25.1619 8.22976 25.3311 8.98497 25.3442C9.83132 25.3572 10.6061 25.1944 11.3092 24.8559C12.0123 24.5173 12.5852 24.0356 13.0279 23.4106C13.4837 22.7726 13.7636 22.0304 13.8678 21.184C13.985 20.2986 13.9134 19.5564 13.6529 18.9574C13.4055 18.3455 12.9954 17.8767 12.4225 17.5512C11.8496 17.2127 11.1334 17.0304 10.274 17.0043L7.0709 16.9848Z" fill="white"/>
</svg>
