<svg width="24" height="24" viewBox="0 0 24 24" fill="none" xmlns="http://www.w3.org/2000/svg">
<path d="M4.28516 8.24924C4.28516 8.07875 4.35289 7.91523 4.47344 7.79467C4.594 7.67411 4.75752 7.60638 4.92801 7.60638H7.91489C8.05345 7.14222 8.33812 6.73517 8.72656 6.44575C9.115 6.15633 9.58647 6 10.0709 6C10.5553 6 11.0267 6.15633 11.4152 6.44575C11.8036 6.73517 12.0883 7.14222 12.2269 7.60638H19.0709C19.2414 7.60638 19.4049 7.67411 19.5254 7.79467C19.646 7.91523 19.7137 8.07875 19.7137 8.24924C19.7137 8.41974 19.646 8.58325 19.5254 8.70381C19.4049 8.82437 19.2414 8.8921 19.0709 8.8921H12.2269C12.0883 9.35626 11.8036 9.76331 11.4152 10.0527C11.0267 10.3422 10.5553 10.4985 10.0709 10.4985C9.58647 10.4985 9.115 10.3422 8.72656 10.0527C8.33812 9.76331 8.05345 9.35626 7.91489 8.8921H4.92801C4.75752 8.8921 4.594 8.82437 4.47344 8.70381C4.35289 8.58325 4.28516 8.41974 4.28516 8.24924ZM19.0709 15.3207H17.3697C17.2311 14.8565 16.9465 14.4495 16.558 14.16C16.1696 13.8706 15.6981 13.7143 15.2137 13.7143C14.7293 13.7143 14.2579 13.8706 13.8694 14.16C13.481 14.4495 13.1963 14.8565 13.0577 15.3207H4.92801C4.75752 15.3207 4.594 15.3884 4.47344 15.509C4.35289 15.6295 4.28516 15.793 4.28516 15.9635C4.28516 16.134 4.35289 16.2975 4.47344 16.4181C4.594 16.5387 4.75752 16.6064 4.92801 16.6064H13.0577C13.1963 17.0705 13.481 17.4776 13.8694 17.767C14.2579 18.0564 14.7293 18.2128 15.2137 18.2128C15.6981 18.2128 16.1696 18.0564 16.558 17.767C16.9465 17.4776 17.2311 17.0705 17.3697 16.6064H19.0709C19.2414 16.6064 19.4049 16.5387 19.5254 16.4181C19.646 16.2975 19.7137 16.134 19.7137 15.9635C19.7137 15.793 19.646 15.6295 19.5254 15.509C19.4049 15.3884 19.2414 15.3207 19.0709 15.3207Z" fill="#FF6928"/>
</svg>
