<svg width="32" height="32" viewBox="0 0 32 32" fill="none" xmlns="http://www.w3.org/2000/svg">
<rect x="0.571429" y="0.571429" width="30.8571" height="30.8571" rx="12" fill="#1A1B1E" stroke="#2B2C31" stroke-width="1.14286"/>
<path fill-rule="evenodd" clip-rule="evenodd" d="M14.8454 8.18465L14.8803 8.00065C14.9894 7.41715 15.4497 7 15.9821 7H16.3614C16.8847 7 17.3394 7.40454 17.4575 7.97544L17.4958 8.15944C17.512 8.23754 17.5215 8.3153 17.5245 8.39202C20.4505 9.06644 22.6268 11.6163 22.6268 14.6588C22.6268 19.0682 18.0813 24.0003 15.9813 24.0003C13.8814 24.0003 9.33594 19.2326 9.33594 14.6588C9.33594 11.4829 11.7072 8.8438 14.8272 8.31424C14.8313 8.27127 14.8373 8.22803 14.8454 8.18465ZM13.9097 13.8437C13.9097 15.1115 14.9334 16.1087 16.1887 16.1087C17.4448 16.1087 18.4784 15.1115 18.4784 13.8437C18.4784 12.5857 17.4448 11.54 16.1887 11.54C14.9334 11.54 13.9097 12.5857 13.9097 13.8437Z" fill="#D9DADD"/>
</svg>
