<svg width="28" height="29" viewBox="0 0 28 29" fill="none" xmlns="http://www.w3.org/2000/svg">
<path d="M6.15179 7.31359L6.22676 7.22676C6.50162 6.9519 6.93172 6.92692 7.2348 7.15179L7.32163 7.22676L14 13.9048L20.6784 7.22676C20.9808 6.92442 21.4709 6.92442 21.7732 7.22676C22.0756 7.52909 22.0756 8.01929 21.7732 8.32163L15.0952 15L21.7732 21.6784C22.0481 21.9532 22.0731 22.3833 21.8482 22.6864L21.7732 22.7732C21.4984 23.0481 21.0683 23.0731 20.7652 22.8482L20.6784 22.7732L14 16.0952L7.32163 22.7732C7.01929 23.0756 6.52909 23.0756 6.22676 22.7732C5.92442 22.4709 5.92442 21.9808 6.22676 21.6784L12.9048 15L6.22676 8.32163C5.9519 8.04677 5.92692 7.61667 6.15179 7.31359Z" fill="white"/>
</svg>
