<svg width="24" height="24" viewBox="0 0 24 24" fill="none" xmlns="http://www.w3.org/2000/svg">
<path d="M6.64111 23.7832C5.77848 23.7832 5.12337 23.5513 4.67578 23.0874C4.23633 22.6235 4.0166 21.9237 4.0166 20.9878V12.9067C4.0166 11.9871 4.23633 11.2954 4.67578 10.8315C5.12337 10.3677 5.77848 10.1357 6.64111 10.1357H17.3467C18.2174 10.1357 18.8726 10.3677 19.312 10.8315C19.7596 11.2954 19.9834 11.9871 19.9834 12.9067V20.9878C19.9834 21.9237 19.7596 22.6235 19.312 23.0874C18.8726 23.5513 18.2174 23.7832 17.3467 23.7832H6.64111ZM6.86084 21.8667H17.1514C17.4036 21.8667 17.5949 21.7935 17.7251 21.647C17.8553 21.5005 17.9204 21.2848 17.9204 21V12.8945C17.9204 12.6178 17.8553 12.4103 17.7251 12.272C17.5949 12.1255 17.4036 12.0522 17.1514 12.0522H6.86084C6.6167 12.0522 6.42546 12.1255 6.28711 12.272C6.1569 12.4103 6.0918 12.6178 6.0918 12.8945V21C6.0918 21.2848 6.1569 21.5005 6.28711 21.647C6.42546 21.7935 6.6167 21.8667 6.86084 21.8667ZM6.0918 11.0635V7.40137C6.0918 5.96908 6.36849 4.77686 6.92188 3.82471C7.47526 2.86442 8.20361 2.14421 9.10693 1.66406C10.0103 1.18392 10.9746 0.943848 12 0.943848C13.0335 0.943848 13.9979 1.18392 14.8931 1.66406C15.7964 2.14421 16.5247 2.86442 17.0781 3.82471C17.6396 4.77686 17.9204 5.96908 17.9204 7.40137V11.0635H15.9185V7.18164C15.9185 6.24577 15.7354 5.45638 15.3691 4.81348C15.0111 4.17057 14.535 3.68636 13.9409 3.36084C13.355 3.03532 12.708 2.87256 12 2.87256C11.3001 2.87256 10.6532 3.03532 10.0591 3.36084C9.46501 3.68636 8.98893 4.17057 8.63086 4.81348C8.27279 5.45638 8.09375 6.24577 8.09375 7.18164V11.0635H6.0918Z" fill="white" fill-opacity="0.3"/>
</svg>
