<svg width="22" height="30" viewBox="0 0 22 30" fill="none" xmlns="http://www.w3.org/2000/svg">
<path d="M19.5898 24.9559L18.8867 29.3504H0L0.605469 25.3856L10.8594 15.7176C11.4583 15.1317 12.0964 14.4806 12.7734 13.7645C13.4635 13.0483 14.069 12.2866 14.5898 11.4793C15.1237 10.659 15.4557 9.79962 15.5859 8.90118C15.6771 8.21108 15.6445 7.56655 15.4883 6.96759C15.332 6.35561 15.0326 5.85431 14.5898 5.46368C14.1471 5.07306 13.5352 4.87124 12.7539 4.85822C11.8164 4.83217 11.0221 5.06004 10.3711 5.54181C9.72005 6.01056 9.20573 6.62905 8.82812 7.39728C8.46354 8.15249 8.22266 8.94676 8.10547 9.78009L2.65625 9.81915C2.77344 7.97019 3.32031 6.34259 4.29688 4.93634C5.28646 3.51707 6.54948 2.41681 8.08594 1.63556C9.63542 0.841288 11.3216 0.463684 13.1445 0.502747C14.7591 0.528788 16.2044 0.847799 17.4805 1.45978C18.7565 2.05874 19.7396 2.94415 20.4297 4.11603C21.1198 5.27488 21.3932 6.70717 21.25 8.4129C21.1458 9.58478 20.8398 10.6785 20.332 11.6942C19.8372 12.7098 19.2122 13.6668 18.457 14.5652C17.7148 15.4637 16.9206 16.3165 16.0742 17.1238C15.2279 17.9181 14.4076 18.6863 13.6133 19.4285L7.89062 24.9168L19.5898 24.9559Z" fill="white"/>
</svg>
