<svg width="24" height="24" viewBox="0 0 24 24" fill="none" xmlns="http://www.w3.org/2000/svg">
<path d="M4.85156 21.1289C4.31771 21.1289 3.85872 21.015 3.47461 20.7871C3.09049 20.5592 2.79427 20.25 2.58594 19.8594C2.3776 19.4753 2.27344 19.0423 2.27344 18.5605C2.27344 18.1048 2.39388 17.6686 2.63477 17.252L9.79297 4.77148C10.0339 4.34831 10.3529 4.0293 10.75 3.81445C11.1471 3.5931 11.5638 3.48242 12 3.48242C12.4297 3.48242 12.8431 3.5931 13.2402 3.81445C13.6374 4.0293 13.9596 4.34831 14.207 4.77148L21.3652 17.252C21.4824 17.4668 21.5703 17.6849 21.6289 17.9062C21.694 18.1276 21.7266 18.3457 21.7266 18.5605C21.7266 19.0423 21.6224 19.4753 21.4141 19.8594C21.2057 20.25 20.9095 20.5592 20.5254 20.7871C20.1413 21.015 19.6823 21.1289 19.1484 21.1289H4.85156ZM12 14.8691C12.5208 14.8691 12.7878 14.599 12.8008 14.0586L12.9375 9.24414C12.9375 8.98372 12.8496 8.76562 12.6738 8.58984C12.498 8.41406 12.2702 8.32617 11.9902 8.32617C11.7103 8.32617 11.4824 8.41406 11.3066 8.58984C11.1374 8.75911 11.056 8.97396 11.0625 9.23438L11.1895 14.0586C11.2025 14.599 11.4727 14.8691 12 14.8691ZM12 18.0137C12.293 18.0137 12.5469 17.9193 12.7617 17.7305C12.9831 17.5352 13.0938 17.291 13.0938 16.998C13.0938 16.6986 12.9863 16.4512 12.7715 16.2559C12.5566 16.0605 12.2995 15.9629 12 15.9629C11.707 15.9629 11.4531 16.0638 11.2383 16.2656C11.0234 16.4609 10.916 16.7051 10.916 16.998C10.916 17.2845 11.0234 17.5254 11.2383 17.7207C11.4531 17.916 11.707 18.0137 12 18.0137Z" fill="#F1F1F5"/>
</svg>
