<svg width="24" height="24" viewBox="0 0 24 24" fill="none" xmlns="http://www.w3.org/2000/svg">
<path d="M7 3C6.80952 3.97778 6.42857 5.93333 5.85714 6.2C5.4 6.41333 3.7619 6.82222 3 7C3.85714 7.17778 5.62857 7.58667 5.85714 7.8C6.14286 8.06667 6.71429 10.0222 7 11" stroke="#F1F1F5" stroke-linecap="round" stroke-linejoin="round"/>
<path d="M7.00024 3C7.19072 3.97778 7.57167 5.93333 8.1431 6.2C8.60024 6.41333 10.2383 6.82222 11.0002 7C10.1431 7.17778 8.37167 7.58667 8.1431 7.8C7.85739 8.06667 7.28596 10.0222 7.00024 11" stroke="#F1F1F5" stroke-linejoin="round"/>
<path d="M14 7C13.6667 8.71111 13 12.1333 12 12.6C11.2 12.9733 8.33333 13.6889 7 14C8.5 14.3111 11.6 15.0267 12 15.4C12.5 15.8667 13.5 19.2889 14 21" stroke="#F1F1F5" stroke-linecap="round" stroke-linejoin="round"/>
<path d="M14 7C14.3333 8.71111 15 12.1333 16 12.6C16.8 12.9733 19.6667 13.6889 21 14C19.5 14.3111 16.4 15.0267 16 15.4C15.5 15.8667 14.5 19.2889 14 21" stroke="#F1F1F5" stroke-linejoin="round"/>
</svg>
