<svg width="48" height="57" viewBox="0 0 48 57" fill="none" xmlns="http://www.w3.org/2000/svg">
<g filter="url(#filter0_f_2096_26817)">
<path d="M33.3707 39.4062L32.6037 44.2002H12L12.6605 39.8749L23.8466 29.3281C24.5 28.6889 25.196 27.9786 25.9347 27.1974C26.6875 26.4161 27.348 25.5852 27.9162 24.7045C28.4986 23.8096 28.8608 22.8721 29.0028 21.892C29.1023 21.1391 29.0668 20.436 28.8963 19.7826C28.7259 19.115 28.3991 18.5681 27.9162 18.142C27.4332 17.7158 26.7656 17.4957 25.9134 17.4815C24.8906 17.4531 24.0241 17.7016 23.3139 18.2272C22.6037 18.7386 22.0426 19.4133 21.6307 20.2514C21.233 21.0752 20.9702 21.9417 20.8423 22.8508L14.8977 22.8934C15.0256 20.8764 15.6222 19.1008 16.6875 17.5667C17.767 16.0184 19.1449 14.8181 20.821 13.9658C22.5114 13.0994 24.3509 12.6874 26.3395 12.73C28.1009 12.7585 29.6776 13.1065 31.0696 13.7741C32.4616 14.4275 33.5341 15.3934 34.2869 16.6718C35.0398 17.936 35.3381 19.4985 35.1818 21.3593C35.0682 22.6377 34.7344 23.8309 34.1804 24.9389C33.6406 26.0468 32.9588 27.0908 32.1349 28.071C31.3253 29.0511 30.4588 29.9815 29.5355 30.8622C28.6122 31.7286 27.7173 32.5667 26.8509 33.3764L20.608 39.3636L33.3707 39.4062Z" fill="#37383E" fill-opacity="0.8"/>
</g>
<path d="M33.3707 39.4062L32.6037 44.2002H12L12.6605 39.8749L23.8466 29.3281C24.5 28.6889 25.196 27.9786 25.9347 27.1974C26.6875 26.4161 27.348 25.5852 27.9162 24.7045C28.4986 23.8096 28.8608 22.8721 29.0028 21.892C29.1023 21.1391 29.0668 20.436 28.8963 19.7826C28.7259 19.115 28.3991 18.5681 27.9162 18.142C27.4332 17.7158 26.7656 17.4957 25.9134 17.4815C24.8906 17.4531 24.0241 17.7016 23.3139 18.2272C22.6037 18.7386 22.0426 19.4133 21.6307 20.2514C21.233 21.0752 20.9702 21.9417 20.8423 22.8508L14.8977 22.8934C15.0256 20.8764 15.6222 19.1008 16.6875 17.5667C17.767 16.0184 19.1449 14.8181 20.821 13.9658C22.5114 13.0994 24.3509 12.6874 26.3395 12.73C28.1009 12.7585 29.6776 13.1065 31.0696 13.7741C32.4616 14.4275 33.5341 15.3934 34.2869 16.6718C35.0398 17.936 35.3381 19.4985 35.1818 21.3593C35.0682 22.6377 34.7344 23.8309 34.1804 24.9389C33.6406 26.0468 32.9588 27.0908 32.1349 28.071C31.3253 29.0511 30.4588 29.9815 29.5355 30.8622C28.6122 31.7286 27.7173 32.5667 26.8509 33.3764L20.608 39.3636L33.3707 39.4062Z" fill="white"/>
<defs>
<filter id="filter0_f_2096_26817" x="0" y="0.727051" width="47.2227" height="55.4731" filterUnits="userSpaceOnUse" color-interpolation-filters="sRGB">
<feFlood flood-opacity="0" result="BackgroundImageFix"/>
<feBlend mode="normal" in="SourceGraphic" in2="BackgroundImageFix" result="shape"/>
<feGaussianBlur stdDeviation="6" result="effect1_foregroundBlur_2096_26817"/>
</filter>
</defs>
</svg>
