<svg width="24" height="24" viewBox="0 0 24 24" fill="none" xmlns="http://www.w3.org/2000/svg">
<path d="M5.85714 6.2C6.42857 5.93333 6.80952 3.97778 7 3V11C6.71429 10.0222 6.14286 8.06667 5.85714 7.8C5.62857 7.58667 3.85714 7.17778 3 7C3.7619 6.82222 5.4 6.41333 5.85714 6.2Z" fill="#F1F1F5" stroke="#F1F1F5" stroke-linejoin="round"/>
<path d="M8.1431 6.2C7.57167 5.93333 7.19072 3.97778 7.00024 3V11C7.28596 10.0222 7.85739 8.06667 8.1431 7.8C8.37167 7.58667 10.1431 7.17778 11.0002 7C10.2383 6.82222 8.60024 6.41333 8.1431 6.2Z" fill="#F1F1F5" stroke="#F1F1F5" stroke-linejoin="round"/>
<path d="M12 12.6C13 12.1333 13.6667 8.71111 14 7V21C13.5 19.2889 12.5 15.8667 12 15.4C11.6 15.0267 8.5 14.3111 7 14C8.33333 13.6889 11.2 12.9733 12 12.6Z" fill="#F1F1F5" stroke="#F1F1F5" stroke-linejoin="round"/>
<path d="M16 12.6C15 12.1333 14.3333 8.71111 14 7V21C14.5 19.2889 15.5 15.8667 16 15.4C16.4 15.0267 19.5 14.3111 21 14C19.6667 13.6889 16.8 12.9733 16 12.6Z" fill="#F1F1F5" stroke="#F1F1F5" stroke-linejoin="round"/>
</svg>
