<svg width="18" height="18" viewBox="0 0 18 18" fill="none" xmlns="http://www.w3.org/2000/svg">
<path d="M8.91406 17.2578C7.8724 17.2578 6.89323 17.0573 5.97656 16.6562C5.0651 16.2604 4.26042 15.7135 3.5625 15.0156C2.86458 14.3177 2.3151 13.513 1.91406 12.6016C1.51823 11.6849 1.32031 10.7057 1.32031 9.66406C1.32031 8.6276 1.51823 7.65104 1.91406 6.73438C2.3099 5.81771 2.85677 5.01042 3.55469 4.3125C4.25781 3.61458 5.0651 3.06771 5.97656 2.67188C6.89323 2.27604 7.86979 2.07812 8.90625 2.07812C9.94271 2.07812 10.9193 2.27604 11.8359 2.67188C12.7526 3.06771 13.5599 3.61458 14.2578 4.3125C14.9557 5.01042 15.5026 5.81771 15.8984 6.73438C16.2995 7.65104 16.5 8.6276 16.5 9.66406C16.5 10.7057 16.3021 11.6849 15.9062 12.6016C15.5104 13.513 14.9635 14.3177 14.2656 15.0156C13.5677 15.7135 12.7604 16.2604 11.8438 16.6562C10.9271 17.0573 9.95052 17.2578 8.91406 17.2578ZM6.46094 12.7891C6.65365 12.7891 6.8125 12.724 6.9375 12.5938L8.91406 10.6094L10.8984 12.5938C11.0182 12.724 11.1745 12.7891 11.3672 12.7891C11.5547 12.7891 11.7109 12.724 11.8359 12.5938C11.9661 12.4583 12.0312 12.2995 12.0312 12.1172C12.0312 11.9297 11.9661 11.776 11.8359 11.6562L9.84375 9.67188L11.8438 7.67969C11.974 7.55469 12.0391 7.40104 12.0391 7.21875C12.0391 7.03646 11.974 6.88281 11.8438 6.75781C11.7188 6.6276 11.5651 6.5625 11.3828 6.5625C11.2057 6.5625 11.0521 6.6276 10.9219 6.75781L8.91406 8.75781L6.92188 6.76562C6.78646 6.63542 6.63281 6.57031 6.46094 6.57031C6.27865 6.57031 6.1224 6.63542 5.99219 6.76562C5.86719 6.89062 5.80469 7.04427 5.80469 7.22656C5.80469 7.40885 5.86979 7.5625 6 7.6875L7.99219 9.67188L6 11.6641C5.86979 11.7943 5.80469 11.9453 5.80469 12.1172C5.80469 12.2995 5.86719 12.4583 5.99219 12.5938C6.1224 12.724 6.27865 12.7891 6.46094 12.7891Z" fill="#F1F1F5"/>
</svg>
