<svg width="18" height="18" viewBox="0 0 18 18" fill="none" xmlns="http://www.w3.org/2000/svg">
<path d="M9 16.1826C7.97949 16.1826 7.01758 15.9873 6.11426 15.5967C5.21582 15.2061 4.42236 14.6665 3.73389 13.978C3.04541 13.2896 2.50586 12.4961 2.11523 11.5977C1.72461 10.6943 1.5293 9.73242 1.5293 8.71191C1.5293 7.69141 1.72461 6.73193 2.11523 5.8335C2.50586 4.93018 3.04297 4.13428 3.72656 3.4458C4.41504 2.75732 5.2085 2.21777 6.10693 1.82715C7.01025 1.43652 7.97217 1.24121 8.99268 1.24121C10.0132 1.24121 10.9751 1.43652 11.8784 1.82715C12.7817 2.21777 13.5776 2.75732 14.2661 3.4458C14.9546 4.13428 15.4941 4.93018 15.8848 5.8335C16.2754 6.73193 16.4707 7.69141 16.4707 8.71191C16.4707 9.73242 16.2754 10.6943 15.8848 11.5977C15.4941 12.4961 14.9546 13.2896 14.2661 13.978C13.5776 14.6665 12.7817 15.2061 11.8784 15.5967C10.98 15.9873 10.0205 16.1826 9 16.1826ZM9 14.9375C9.86426 14.9375 10.6724 14.7764 11.4243 14.4541C12.1763 14.1318 12.8379 13.6875 13.4092 13.1211C13.9805 12.5498 14.4248 11.8882 14.7422 11.1362C15.0645 10.3843 15.2256 9.57617 15.2256 8.71191C15.2256 7.84766 15.0645 7.03955 14.7422 6.2876C14.4199 5.53564 13.9731 4.87402 13.4019 4.30273C12.8354 3.73145 12.1738 3.28711 11.417 2.96973C10.665 2.64746 9.85693 2.48633 8.99268 2.48633C8.12842 2.48633 7.32031 2.64746 6.56836 2.96973C5.81641 3.28711 5.15723 3.73145 4.59082 4.30273C4.02441 4.87402 3.58008 5.53564 3.25781 6.2876C2.94043 7.03955 2.78174 7.84766 2.78174 8.71191C2.78174 9.57617 2.94043 10.3843 3.25781 11.1362C3.58008 11.8882 4.02441 12.5498 4.59082 13.1211C5.16211 13.6875 5.82373 14.1318 6.57568 14.4541C7.32764 14.7764 8.13574 14.9375 9 14.9375ZM8.99268 10.0303C8.6167 10.0303 8.42383 9.8374 8.41406 9.45166L8.31885 5.57715C8.31396 5.3916 8.37256 5.23779 8.49463 5.11572C8.62158 4.99365 8.78516 4.93262 8.98535 4.93262C9.18066 4.93262 9.3418 4.99609 9.46875 5.12305C9.60059 5.24512 9.66406 5.39893 9.65918 5.58447L9.54932 9.45166C9.54443 9.8374 9.35889 10.0303 8.99268 10.0303ZM8.99268 12.4106C8.77783 12.4106 8.59229 12.3374 8.43604 12.1909C8.27979 12.0396 8.20166 11.8589 8.20166 11.6489C8.20166 11.439 8.27979 11.2607 8.43604 11.1143C8.59229 10.9629 8.77783 10.8872 8.99268 10.8872C9.20752 10.8872 9.39307 10.9604 9.54932 11.1069C9.70557 11.2534 9.78369 11.4341 9.78369 11.6489C9.78369 11.8638 9.70312 12.0444 9.54199 12.1909C9.38574 12.3374 9.20264 12.4106 8.99268 12.4106Z" fill="#FF2C51"/>
</svg>
