<svg width="20" height="20" viewBox="0 0 20 20" fill="none" xmlns="http://www.w3.org/2000/svg">
<path d="M10.3892 2.5C10.7317 2.5 11.0148 2.75438 11.0596 3.08458L11.0658 3.17638L11.0669 9.71614H17.6083C17.9818 9.71614 18.2847 10.019 18.2847 10.3927C18.2847 10.7351 18.0302 11.0182 17.7001 11.063L17.6083 11.0692H11.0669L11.0687 17.608C11.0688 17.9816 10.766 18.2847 10.3925 18.2847C10.05 18.2847 9.76693 18.0303 9.72211 17.7001L9.71589 17.6082L9.71408 11.0692H3.1764C2.80283 11.0692 2.5 10.7663 2.5 10.3927C2.5 10.0502 2.75446 9.7671 3.08462 9.72227L3.1764 9.71614H9.71408L9.713 3.17665C9.71291 2.80302 10.0157 2.5 10.3892 2.5Z" fill="white"/>
</svg>
