<svg width="24" height="24" viewBox="0 0 24 24" fill="none" xmlns="http://www.w3.org/2000/svg">
<path d="M3.17077 3.35279L3.2551 3.2551C3.56432 2.94588 4.04818 2.91778 4.38915 3.17077L4.48684 3.2551L12 10.7679L19.5132 3.2551C19.8534 2.91497 20.4047 2.91497 20.7449 3.2551C21.085 3.59523 21.085 4.14671 20.7449 4.48684L13.2321 12L20.7449 19.5132C21.0541 19.8223 21.0822 20.3063 20.8292 20.6472L20.7449 20.7449C20.4357 21.0541 19.9518 21.0822 19.6109 20.8292L19.5132 20.7449L12 13.2321L4.48684 20.7449C4.14671 21.085 3.59523 21.085 3.2551 20.7449C2.91497 20.4047 2.91497 19.8534 3.2551 19.5132L10.7679 12L3.2551 4.48684C2.94588 4.17762 2.91778 3.69376 3.17077 3.35279Z" fill="white"/>
</svg>
