<svg width="24" height="24" viewBox="0 0 24 24" fill="none" xmlns="http://www.w3.org/2000/svg">
<mask id="path-1-inside-1_1_874" fill="white">
<path fill-rule="evenodd" clip-rule="evenodd" d="M13.9848 2.9875L14.076 2.8415C14.3637 2.378 14.9375 2.18061 15.4501 2.36718L15.8154 2.50011C16.3193 2.68353 16.6305 3.19076 16.5656 3.7231L16.5449 3.89474C16.5049 4.22522 16.3317 4.50028 16.0898 4.68029C20.0628 6.57054 22.3206 10.2457 21.2106 13.2955C20.7234 14.634 19.6618 15.6478 18.2639 16.2706C18.195 16.5825 18.1049 16.8935 17.9926 17.2019C16.6174 20.9804 12.4458 22.9309 8.67505 21.5585C4.90434 20.186 2.96245 16.0104 4.3377 12.2319C4.45006 11.9232 4.58108 11.6267 4.72902 11.3432C4.05898 9.96794 3.89768 8.50945 4.3847 7.17136C5.49446 4.12232 9.58477 2.75821 13.8422 3.86255C13.7742 3.57648 13.8141 3.26274 13.9848 2.9875Z"/>
</mask>
<path d="M14.076 2.8415L14.9242 3.37124L14.9256 3.36894L14.076 2.8415ZM13.9848 2.9875L13.1366 2.45776L13.135 2.46047L13.9848 2.9875ZM15.4501 2.36718L15.1081 3.30688L15.4501 2.36718ZM15.8154 2.50011L16.1574 1.56042L15.8154 2.50011ZM16.5656 3.7231L15.573 3.6021L15.5728 3.6031L16.5656 3.7231ZM16.5449 3.89474L15.5521 3.77474L15.5521 3.77474L16.5449 3.89474ZM16.0898 4.68029L15.4928 3.87805L14.1603 4.86968L15.6602 5.58329L16.0898 4.68029ZM18.2639 16.2706L17.8569 15.3572L17.3961 15.5624L17.2874 16.055L18.2639 16.2706ZM4.72902 11.3432L5.61555 11.8059L5.84893 11.3587L5.628 10.9053L4.72902 11.3432ZM13.8422 3.86255L13.5911 4.83051L15.1994 5.24768L14.8151 3.63125L13.8422 3.86255ZM13.2278 2.31177L13.1366 2.45776L14.833 3.51723L14.9241 3.37123L13.2278 2.31177ZM15.7922 1.42749C14.8365 1.07965 13.7647 1.447 13.2264 2.31406L14.9256 3.36894C14.9628 3.30899 15.0386 3.28157 15.1081 3.30688L15.7922 1.42749ZM16.1574 1.56042L15.7922 1.42749L15.1081 3.30688L15.4733 3.4398L16.1574 1.56042ZM17.5583 3.84411C17.6795 2.84978 17.0984 1.90294 16.1574 1.56042L15.4733 3.4398C15.5401 3.46412 15.5815 3.53174 15.573 3.6021L17.5583 3.84411ZM17.5376 4.01474L17.5584 3.8431L15.5728 3.6031L15.5521 3.77474L17.5376 4.01474ZM16.6868 5.48252C17.1377 5.14694 17.4632 4.63029 17.5376 4.01473L15.5521 3.77474C15.549 3.80025 15.5416 3.81919 15.5327 3.83427C15.5232 3.8502 15.5099 3.86531 15.4928 3.87805L16.6868 5.48252ZM22.1503 13.6375C22.8322 11.7639 22.4515 9.76704 21.4137 8.03835C20.3769 6.31147 18.659 4.79526 16.5194 3.77728L15.6602 5.58329C17.4935 6.45557 18.8911 7.72208 19.699 9.0678C20.5058 10.4117 20.699 11.7773 20.2709 12.9535L22.1503 13.6375ZM18.6708 17.1841C20.2648 16.4739 21.5526 15.2796 22.1503 13.6375L20.2709 12.9535C19.8942 13.9884 19.0589 14.8217 17.8569 15.3572L18.6708 17.1841ZM18.9323 17.5439C19.0596 17.1941 19.162 16.8409 19.2404 16.4862L17.2874 16.055C17.228 16.3242 17.1501 16.5929 17.0529 16.8599L18.9323 17.5439ZM8.33303 22.4981C12.6245 24.0601 17.3688 21.8395 18.9323 17.5439L17.0529 16.8599C15.8659 20.1212 12.267 21.8016 9.01707 20.6188L8.33303 22.4981ZM3.39801 11.8899C1.83453 16.1855 4.04152 20.9362 8.33303 22.4981L9.01707 20.6188C5.76717 19.4359 4.09037 15.8353 5.2774 12.5739L3.39801 11.8899ZM3.84249 10.8806C3.67425 11.203 3.52545 11.5397 3.39801 11.8899L5.2774 12.5739C5.37466 12.3067 5.48791 12.0505 5.61555 11.8059L3.84249 10.8806ZM3.44501 6.82934C2.84754 8.47087 3.06603 10.2131 3.83004 11.7812L5.628 10.9053C5.05193 9.72284 4.94781 8.54804 5.32439 7.51338L3.44501 6.82934ZM14.0933 2.89458C11.8005 2.29985 9.5106 2.3575 7.60701 3.01409C5.70141 3.67137 4.12678 4.95618 3.44501 6.82934L5.32439 7.51338C5.75238 6.3375 6.77779 5.41573 8.25915 4.90478C9.7425 4.39314 11.6265 4.32091 13.5911 4.83051L14.0933 2.89458ZM13.135 2.46047C12.8175 2.97235 12.7426 3.56077 12.8693 4.09385L14.8151 3.63125C14.8102 3.6109 14.8096 3.59101 14.8124 3.57272C14.8151 3.5553 14.8213 3.53599 14.8346 3.51453L13.135 2.46047Z" fill="#F1F1F5" mask="url(#path-1-inside-1_1_874)"/>
</svg>
