<svg width="24" height="24" viewBox="0 0 24 24" fill="none" xmlns="http://www.w3.org/2000/svg">
<path d="M4.88086 19.459C4.75716 19.3418 4.67578 19.2018 4.63672 19.0391C4.59766 18.8763 4.59766 18.7135 4.63672 18.5508C4.68229 18.388 4.76367 18.248 4.88086 18.1309L10.6621 12.3398L4.88086 6.55859C4.76367 6.44141 4.68555 6.30143 4.64648 6.13867C4.60742 5.97591 4.60742 5.81641 4.64648 5.66016C4.68555 5.4974 4.76367 5.35417 4.88086 5.23047C4.99805 5.10677 5.13802 5.02539 5.30078 4.98633C5.46354 4.94727 5.62305 4.95052 5.7793 4.99609C5.94206 5.03516 6.08529 5.11328 6.20898 5.23047L11.9902 11.0215L17.791 5.23047C17.9668 5.05469 18.1849 4.9668 18.4453 4.9668C18.7057 4.9668 18.9271 5.05469 19.1094 5.23047C19.2917 5.40625 19.3828 5.6276 19.3828 5.89453C19.3828 6.16146 19.2949 6.38281 19.1191 6.55859L13.3184 12.3398L19.1191 18.1309C19.2949 18.3066 19.3828 18.528 19.3828 18.7949C19.3828 19.0553 19.2917 19.2767 19.1094 19.459C18.9271 19.6413 18.7057 19.7292 18.4453 19.7227C18.1849 19.7227 17.9668 19.6348 17.791 19.459L11.9902 13.668L6.20898 19.459C6.08529 19.5762 5.94206 19.6543 5.7793 19.6934C5.62305 19.7389 5.46354 19.7389 5.30078 19.6934C5.13802 19.6543 4.99805 19.5762 4.88086 19.459Z" fill="#F1F1F5"/>
</svg>
