<svg width="24" height="24" viewBox="0 0 24 24" fill="none" xmlns="http://www.w3.org/2000/svg">
<g clip-path="url(#clip0_1_866)">
<path d="M11.0625 22.2812C10.6914 22.2812 10.3724 22.1771 10.1055 21.9688C9.83854 21.7604 9.66276 21.4772 9.57812 21.1191L9.1875 19.4395L8.91406 19.3418L7.45898 20.25C7.14648 20.4453 6.82096 20.5202 6.48242 20.4746C6.14388 20.4355 5.84115 20.2826 5.57422 20.0156L4.28516 18.7266C4.02474 18.4596 3.87174 18.1569 3.82617 17.8184C3.7806 17.4798 3.85547 17.1576 4.05078 16.8516L4.95898 15.3965L4.86133 15.1426L3.20117 14.7617C2.84961 14.6706 2.56641 14.4915 2.35156 14.2246C2.13672 13.9577 2.0293 13.6387 2.0293 13.2676V11.4512C2.0293 11.0801 2.13346 10.7611 2.3418 10.4941C2.55664 10.2207 2.8431 10.0417 3.20117 9.95703L4.85156 9.55664L4.94922 9.29297L4.04102 7.83789C3.8457 7.52539 3.77083 7.20312 3.81641 6.87109C3.86198 6.53255 4.01497 6.22982 4.27539 5.96289L5.57422 4.66406C5.82812 4.40365 6.12435 4.25391 6.46289 4.21484C6.80143 4.16927 7.12695 4.24089 7.43945 4.42969L8.9043 5.31836L9.1875 5.2207L9.57812 3.54102C9.66276 3.18945 9.83854 2.90951 10.1055 2.70117C10.3724 2.48633 10.6914 2.37891 11.0625 2.37891H12.9277C13.2988 2.37891 13.6178 2.48633 13.8848 2.70117C14.1517 2.90951 14.3275 3.18945 14.4121 3.54102L14.8027 5.2207L15.0859 5.31836L16.541 4.42969C16.86 4.24089 17.1855 4.16927 17.5176 4.21484C17.8561 4.25391 18.1556 4.40365 18.416 4.66406L19.7051 5.96289C19.972 6.22982 20.125 6.53255 20.1641 6.87109C20.2096 7.20312 20.1348 7.52539 19.9395 7.83789L19.0312 9.29297L19.1387 9.55664L20.7988 9.95703C21.1569 10.0417 21.4368 10.2207 21.6387 10.4941C21.847 10.7611 21.9512 11.0801 21.9512 11.4512V13.2676C21.9512 13.6387 21.847 13.9577 21.6387 14.2246C21.4303 14.4915 21.1504 14.6706 20.7988 14.7617L19.1191 15.1426L19.0215 15.3965L19.9297 16.8516C20.125 17.1576 20.2031 17.4798 20.1641 17.8184C20.125 18.1569 19.9688 18.4596 19.6953 18.7266L18.4062 20.0156C18.1393 20.2826 17.8366 20.4355 17.498 20.4746C17.166 20.5202 16.8438 20.4453 16.5312 20.25L15.0762 19.3418L14.8027 19.4395L14.4121 21.1191C14.3275 21.4772 14.1517 21.7604 13.8848 21.9688C13.6178 22.1771 13.2988 22.2812 12.9277 22.2812H11.0625ZM11.248 20.7188H12.7422C12.8854 20.7188 12.9701 20.6504 12.9961 20.5137L13.5527 18.2285C13.8522 18.1569 14.1289 18.0658 14.3828 17.9551C14.6432 17.8444 14.8809 17.724 15.0957 17.5938L17.0977 18.8242C17.2083 18.9023 17.3223 18.8861 17.4395 18.7754L18.4648 17.7402C18.569 17.6491 18.582 17.5417 18.5039 17.418L17.2734 15.416C17.3906 15.2077 17.5046 14.9733 17.6152 14.7129C17.7324 14.4525 17.8236 14.179 17.8887 13.8926L20.1836 13.3457C20.3203 13.3197 20.3887 13.2318 20.3887 13.082V11.6172C20.3887 11.4674 20.3203 11.3796 20.1836 11.3535L17.8984 10.8066C17.8333 10.5007 17.7389 10.2142 17.6152 9.94727C17.498 9.68034 17.3874 9.45247 17.2832 9.26367L18.5137 7.27148C18.5983 7.14128 18.5885 7.02734 18.4844 6.92969L17.4492 5.9043C17.3385 5.80664 17.2214 5.79362 17.0977 5.86523L15.1055 7.08594C14.8841 6.96224 14.6432 6.84505 14.3828 6.73438C14.1224 6.61719 13.8457 6.51953 13.5527 6.44141L12.9961 4.14648C12.9701 4.01628 12.8854 3.95117 12.7422 3.95117H11.248C11.1048 3.95117 11.0202 4.01628 10.9941 4.14648L10.4473 6.44141C10.1608 6.51302 9.8776 6.60742 9.59766 6.72461C9.31771 6.83529 9.07682 6.95247 8.875 7.07617L6.89258 5.85547C6.76237 5.78385 6.64193 5.80013 6.53125 5.9043L5.49609 6.91992C5.39844 7.02409 5.38867 7.14128 5.4668 7.27148L6.69727 9.26367C6.59961 9.45247 6.49219 9.68034 6.375 9.94727C6.25781 10.2142 6.16341 10.5007 6.0918 10.8066L3.80664 11.3535C3.66992 11.3796 3.60156 11.4674 3.60156 11.6172V13.082C3.60156 13.2318 3.66992 13.3197 3.80664 13.3457L6.10156 13.8926C6.16667 14.179 6.25456 14.4525 6.36523 14.7129C6.48242 14.9733 6.59961 15.2077 6.7168 15.416L5.47656 17.418C5.39844 17.5482 5.41146 17.6556 5.51562 17.7402L6.54102 18.7852C6.6582 18.8893 6.77539 18.9023 6.89258 18.8242L8.89453 17.5938C9.10286 17.724 9.33724 17.8477 9.59766 17.9648C9.86458 18.0755 10.1445 18.1634 10.4375 18.2285L10.9941 20.5137C11.0202 20.6504 11.1048 20.7188 11.248 20.7188ZM12 15.8457C11.349 15.8457 10.7565 15.6862 10.2227 15.3672C9.69531 15.0482 9.27214 14.625 8.95312 14.0977C8.63411 13.5638 8.47461 12.9746 8.47461 12.3301C8.47461 11.6855 8.63411 11.0996 8.95312 10.5723C9.27214 10.0449 9.69857 9.625 10.2324 9.3125C10.7663 8.99349 11.3555 8.83398 12 8.83398C12.6445 8.83398 13.2305 8.99349 13.7578 9.3125C14.2852 9.625 14.7083 10.0449 15.0273 10.5723C15.3464 11.0996 15.5059 11.6855 15.5059 12.3301C15.5059 12.9811 15.3464 13.5736 15.0273 14.1074C14.7083 14.6348 14.2852 15.0579 13.7578 15.377C13.2305 15.6895 12.6445 15.8457 12 15.8457ZM12 14.3418C12.3516 14.3418 12.6771 14.2507 12.9766 14.0684C13.2826 13.8796 13.5234 13.6354 13.6992 13.3359C13.8815 13.0299 13.9727 12.6947 13.9727 12.3301C13.9727 11.972 13.8815 11.6432 13.6992 11.3438C13.5234 11.0378 13.2826 10.7936 12.9766 10.6113C12.6771 10.429 12.3516 10.3379 12 10.3379C11.6354 10.3379 11.3001 10.429 10.9941 10.6113C10.6947 10.7936 10.4538 11.0378 10.2715 11.3438C10.0892 11.6432 9.99805 11.972 9.99805 12.3301C9.99805 12.6947 10.0892 13.0299 10.2715 13.3359C10.4538 13.6419 10.6947 13.8861 10.9941 14.0684C11.3001 14.2507 11.6354 14.3418 12 14.3418Z" fill="#F1F1F5"/>
</g>
<defs>
<clipPath id="clip0_1_866">
<rect width="24" height="24" fill="white"/>
</clipPath>
</defs>
</svg>
