<svg width="24" height="24" viewBox="0 0 24 24" fill="none" xmlns="http://www.w3.org/2000/svg">
<path d="M7.23535 18.7642C6.36654 18.7642 5.71354 18.5483 5.27637 18.1167C4.84473 17.6906 4.62891 17.0487 4.62891 16.1909V7.90674C4.62891 7.04899 4.84473 6.40706 5.27637 5.98096C5.71354 5.54932 6.36654 5.3335 7.23535 5.3335H9.55127V6.66992H7.25195C6.83691 6.66992 6.51872 6.7806 6.29736 7.00195C6.07601 7.22331 5.96533 7.5498 5.96533 7.98145V16.1162C5.96533 16.5479 6.07601 16.8743 6.29736 17.0957C6.51872 17.3171 6.83691 17.4277 7.25195 17.4277H16.7314C17.141 17.4277 17.4591 17.3171 17.686 17.0957C17.9129 16.8743 18.0264 16.5479 18.0264 16.1162V7.98145C18.0264 7.5498 17.9129 7.22331 17.686 7.00195C17.4591 6.7806 17.141 6.66992 16.7314 6.66992H14.4404V5.3335H16.7563C17.6252 5.3335 18.2754 5.54932 18.707 5.98096C19.1442 6.4126 19.3628 7.05452 19.3628 7.90674V16.1909C19.3628 17.0431 19.1442 17.6851 18.707 18.1167C18.2754 18.5483 17.6252 18.7642 16.7563 18.7642H7.23535ZM11.9917 12.2646C11.8146 12.2646 11.6597 12.201 11.5269 12.0737C11.3996 11.9465 11.3359 11.7943 11.3359 11.6172V3.09229L11.3857 1.84717L10.8213 2.43652L9.56787 3.78125C9.45166 3.91406 9.29948 3.98047 9.11133 3.98047C8.93424 3.98047 8.79036 3.92513 8.67969 3.81445C8.56901 3.70378 8.51367 3.56266 8.51367 3.39111C8.51367 3.23617 8.57731 3.09229 8.70459 2.95947L11.5103 0.253418C11.5988 0.17041 11.679 0.112305 11.751 0.0791016C11.8285 0.0458984 11.9087 0.0292969 11.9917 0.0292969C12.0802 0.0292969 12.1605 0.0458984 12.2324 0.0791016C12.3099 0.112305 12.3901 0.17041 12.4731 0.253418L15.2788 2.95947C15.4116 3.09229 15.478 3.23617 15.478 3.39111C15.478 3.56266 15.4199 3.70378 15.3037 3.81445C15.1875 3.92513 15.0436 3.98047 14.8721 3.98047C14.6895 3.98047 14.54 3.91406 14.4238 3.78125L13.1621 2.43652L12.606 1.84717L12.6558 3.09229V11.6172C12.6558 11.7943 12.5894 11.9465 12.4565 12.0737C12.3293 12.201 12.1743 12.2646 11.9917 12.2646Z" fill="#F1F1F5"/>
</svg>
