<svg width="32" height="32" viewBox="0 0 32 32" fill="none" xmlns="http://www.w3.org/2000/svg">
<rect x="0.571429" y="0.571429" width="30.8571" height="30.8571" rx="12" fill="#1A1B1E" stroke="#2B2C31" stroke-width="1.14286"/>
<path d="M17.4479 6.5H14.5556C13.5986 6.5 12.8106 7.24351 12.7076 8.19952L11.25 8.2C10.2231 8.2 9.39062 9.05626 9.39062 10.1125V21.5875C9.39062 22.6437 10.2231 23.5 11.25 23.5H20.7535C21.7803 23.5 22.6128 22.6437 22.6128 21.5875V10.1125C22.6128 9.05626 21.7803 8.2 20.7535 8.2L19.2959 8.19952C19.1929 7.24351 18.4048 6.5 17.4479 6.5ZM14.5556 7.775H17.4479C17.7902 7.775 18.0677 8.06042 18.0677 8.4125C18.0677 8.76458 17.7902 9.05 17.4479 9.05H14.5556C14.2133 9.05 13.9358 8.76458 13.9358 8.4125C13.9358 8.06042 14.2133 7.775 14.5556 7.775ZM16.4149 13.5125C16.4149 13.1604 16.6924 12.875 17.0347 12.875H19.9271C20.2694 12.875 20.5469 13.1604 20.5469 13.5125C20.5469 13.8646 20.2694 14.15 19.9271 14.15H17.0347C16.6924 14.15 16.4149 13.8646 16.4149 13.5125ZM17.0348 17.55H19.927C20.2694 17.55 20.5468 17.8354 20.5468 18.1875C20.5468 18.5396 20.2694 18.825 19.927 18.825H17.0348C16.6924 18.825 16.415 18.5396 16.415 18.1875C16.415 17.8354 16.6924 17.55 17.0348 17.55ZM14.9938 13.1133L13.341 14.8133C13.099 15.0622 12.7066 15.0622 12.4645 14.8133L11.6381 13.9633C11.3961 13.7143 11.3961 13.3107 11.6381 13.0617C11.8802 12.8128 12.2726 12.8128 12.5146 13.0617L12.9028 13.4609L14.1173 12.2117C14.3594 11.9628 14.7517 11.9628 14.9938 12.2117C15.2358 12.4607 15.2358 12.8643 14.9938 13.1133ZM14.9938 16.8867C15.2358 17.1357 15.2358 17.5393 14.9938 17.7883L13.341 19.4883C13.099 19.7372 12.7066 19.7372 12.4645 19.4883L11.6381 18.6383C11.3961 18.3893 11.3961 17.9857 11.6381 17.7367C11.8802 17.4878 12.2726 17.4878 12.5146 17.7367L12.9028 18.1359L14.1173 16.8867C14.3594 16.6378 14.7517 16.6378 14.9938 16.8867Z" fill="#D9DADD"/>
</svg>
