<svg width="37" height="39" viewBox="0 0 37 39" fill="none" xmlns="http://www.w3.org/2000/svg">
<g filter="url(#filter0_d_1_864)">
<path d="M19.8047 30.625C19.3307 30.625 18.9388 30.4701 18.6289 30.1602C18.319 29.8503 18.1641 29.4583 18.1641 28.9844V24.1855H17.8223C16.1999 24.1855 14.7689 24.3542 13.5293 24.6914C12.2897 25.0195 11.2005 25.5755 10.2617 26.3594C9.32292 27.1341 8.49805 28.1914 7.78711 29.5312C7.54102 29.9779 7.27214 30.265 6.98047 30.3926C6.6888 30.5293 6.38346 30.5977 6.06445 30.5977C5.67253 30.5977 5.33073 30.4154 5.03906 30.0508C4.7474 29.6953 4.60156 29.1758 4.60156 28.4922C4.60156 26.1224 4.86589 23.9941 5.39453 22.1074C5.92318 20.2116 6.72526 18.5983 7.80078 17.2676C8.8763 15.9368 10.2435 14.9206 11.9023 14.2188C13.5703 13.5169 15.5436 13.166 17.8223 13.166H18.1641V8.4082C18.1641 7.94336 18.319 7.54688 18.6289 7.21875C18.9388 6.88151 19.3398 6.71289 19.832 6.71289C20.1602 6.71289 20.4564 6.78581 20.7207 6.93164C20.985 7.07747 21.2995 7.32357 21.6641 7.66992L31.8906 17.2129C32.1458 17.4499 32.3236 17.696 32.4238 17.9512C32.5241 18.1973 32.5742 18.4342 32.5742 18.6621C32.5742 18.8809 32.5241 19.1178 32.4238 19.373C32.3236 19.6283 32.1458 19.8743 31.8906 20.1113L21.6641 29.7363C21.3359 30.0371 21.026 30.2604 20.7344 30.4062C20.4518 30.5521 20.1419 30.625 19.8047 30.625ZM20.5977 27.5625C20.6706 27.5625 20.7389 27.526 20.8027 27.4531L29.8398 18.9082C29.8854 18.8626 29.9173 18.8216 29.9355 18.7852C29.9629 18.7396 29.9766 18.6986 29.9766 18.6621C29.9766 18.5892 29.931 18.5072 29.8398 18.416L20.8027 9.77539C20.7754 9.74805 20.7435 9.72526 20.707 9.70703C20.6706 9.67969 20.6341 9.66602 20.5977 9.66602C20.4609 9.66602 20.3926 9.73438 20.3926 9.87109V14.875C20.3926 15.1667 20.2513 15.3125 19.9688 15.3125H18.2734C16.1133 15.3125 14.2995 15.6452 12.832 16.3105C11.3737 16.9668 10.1979 17.86 9.30469 18.9902C8.42057 20.1204 7.76888 21.401 7.34961 22.832C6.93034 24.263 6.69336 25.7441 6.63867 27.2754C6.63867 27.3665 6.67057 27.4121 6.73438 27.4121C6.76172 27.4121 6.77995 27.403 6.78906 27.3848C6.80729 27.3574 6.82552 27.3255 6.84375 27.2891C7.61849 25.6667 8.96289 24.3861 10.877 23.4473C12.791 22.4993 15.2565 22.0254 18.2734 22.0254H19.9688C20.2513 22.0254 20.3926 22.1712 20.3926 22.4629V27.3574C20.3926 27.4941 20.4609 27.5625 20.5977 27.5625Z" fill="#F1F1F5"/>
</g>
<defs>
<filter id="filter0_d_1_864" x="0.601562" y="6.71289" width="35.9727" height="31.9121" filterUnits="userSpaceOnUse" color-interpolation-filters="sRGB">
<feFlood flood-opacity="0" result="BackgroundImageFix"/>
<feColorMatrix in="SourceAlpha" type="matrix" values="0 0 0 0 0 0 0 0 0 0 0 0 0 0 0 0 0 0 127 0" result="hardAlpha"/>
<feOffset dy="4"/>
<feGaussianBlur stdDeviation="2"/>
<feComposite in2="hardAlpha" operator="out"/>
<feColorMatrix type="matrix" values="0 0 0 0 0 0 0 0 0 0 0 0 0 0 0 0 0 0 0.16 0"/>
<feBlend mode="normal" in2="BackgroundImageFix" result="effect1_dropShadow_1_864"/>
<feBlend mode="normal" in="SourceGraphic" in2="effect1_dropShadow_1_864" result="shape"/>
</filter>
</defs>
</svg>
