<svg width="101" height="101" viewBox="0 0 101 101" fill="none" xmlns="http://www.w3.org/2000/svg">
<rect x="0.5" y="0.5" width="100" height="100" rx="5.5" fill="#323339"/>
<rect x="0.5" y="0.5" width="100" height="100" rx="5.5" stroke="#37383E"/>
<path d="M41.6239 51.5898V53.0117H43.538V51.5898H44.7411V56.5117H40.4071V51.5898H41.6239ZM39.1903 47.7617C39.1835 46.0869 40.5301 44.9316 42.4032 44.9316C44.0165 44.9316 45.2674 45.8408 45.534 47.2148H47.9266V44.4121H49.2255V50.9062H47.9266V48.2812H45.5409C45.288 49.6826 44.0301 50.6123 42.4032 50.6055C40.5301 50.6123 39.1835 49.4502 39.1903 47.7617ZM40.4344 47.7617C40.4276 48.8213 41.2479 49.5459 42.4032 49.5527C43.538 49.5459 44.3446 48.8213 44.3446 47.7617C44.3446 46.7158 43.538 46.0049 42.4032 46.0117C41.2479 46.0049 40.4276 46.7158 40.4344 47.7617ZM41.6239 55.5H43.538V53.9961H41.6239V55.5ZM44.8094 55.623C46.286 55.0146 47.0106 53.7295 47.0106 52.5059V51.5078H48.2958V52.5059C48.2889 53.791 49.0135 55.0898 50.5243 55.623L49.8544 56.6074C48.7469 56.1836 48.0292 55.3838 47.6395 54.4131C47.2362 55.3564 46.5184 56.1699 45.4657 56.6074L44.8094 55.623ZM56.3683 44.6719C59.0548 44.665 60.7365 45.54 60.7433 47.0234C60.7365 48.4795 59.0548 49.3408 56.3683 49.334C53.6886 49.3408 51.9865 48.4795 51.9933 47.0234C51.9865 45.54 53.6886 44.665 56.3683 44.6719ZM50.7902 51.3301V50.2773H61.9601V51.3301H50.7902ZM52.13 56.5117V52.4238H60.5929V56.5117H52.13ZM53.3331 47.0234C53.3263 47.8369 54.4816 48.3154 56.3683 48.3223C58.2413 48.3154 59.4103 47.8369 59.4035 47.0234C59.4103 46.1758 58.2413 45.6904 56.3683 45.6973C54.4816 45.6904 53.3263 46.1758 53.3331 47.0234ZM53.4152 55.459H59.3351V53.4629H53.4152V55.459Z" fill="white"/>
</svg>
