<svg width="24" height="24" viewBox="0 0 24 24" fill="none" xmlns="http://www.w3.org/2000/svg">
<rect x="0.5" y="0.5" width="23" height="23" rx="11.5" fill="#F1F1F5"/>
<rect x="0.5" y="0.5" width="23" height="23" rx="11.5" stroke="#111111"/>
<path d="M6.64453 17.1719C6.03125 17.1719 5.57031 17.0195 5.26172 16.7148C4.95703 16.4141 4.80469 15.9609 4.80469 15.3555V9.2207C4.80469 8.61914 4.95703 8.16797 5.26172 7.86719C5.57031 7.5625 6.03125 7.41016 6.64453 7.41016H8.2793C8.50977 7.41016 8.67969 7.38281 8.78906 7.32812C8.89844 7.26953 9.01758 7.16797 9.14648 7.02344L9.61523 6.49609C9.76367 6.33594 9.92383 6.21289 10.0957 6.12695C10.2715 6.04102 10.5098 5.99805 10.8105 5.99805H13.1484C13.4492 5.99805 13.6875 6.04102 13.8633 6.12695C14.0391 6.21289 14.1992 6.33594 14.3438 6.49609L14.8125 7.02344C14.9023 7.12109 14.9824 7.19922 15.0527 7.25781C15.127 7.3125 15.2109 7.35156 15.3047 7.375C15.3984 7.39844 15.5234 7.41016 15.6797 7.41016H17.3555C17.9648 7.41016 18.4238 7.5625 18.7324 7.86719C19.041 8.16797 19.1953 8.61914 19.1953 9.2207V15.3555C19.1953 15.9609 19.041 16.4141 18.7324 16.7148C18.4238 17.0195 17.9648 17.1719 17.3555 17.1719H6.64453ZM12 15.4434C12.4414 15.4434 12.8555 15.3613 13.2422 15.1973C13.6289 15.0332 13.9688 14.8047 14.2617 14.5117C14.5547 14.2188 14.7832 13.8789 14.9473 13.4922C15.1113 13.1055 15.1934 12.6875 15.1934 12.2383C15.1934 11.6445 15.0508 11.1055 14.7656 10.6211C14.4805 10.1367 14.0957 9.75195 13.6113 9.4668C13.127 9.18164 12.5898 9.03906 12 9.03906C11.5547 9.03906 11.1387 9.12109 10.752 9.28516C10.3652 9.44922 10.0254 9.67773 9.73242 9.9707C9.44336 10.2637 9.21484 10.6035 9.04688 10.9902C8.88281 11.377 8.80078 11.793 8.80078 12.2383C8.80078 12.6875 8.88281 13.1055 9.04688 13.4922C9.21484 13.8789 9.44336 14.2188 9.73242 14.5117C10.0254 14.8047 10.3652 15.0332 10.752 15.1973C11.1387 15.3613 11.5547 15.4434 12 15.4434ZM12 14.5527C11.5742 14.5527 11.1855 14.4492 10.834 14.2422C10.4863 14.0352 10.207 13.7578 9.99609 13.4102C9.78906 13.0586 9.68555 12.668 9.68555 12.2383C9.68555 11.8125 9.78906 11.4258 9.99609 11.0781C10.207 10.7266 10.4863 10.4473 10.834 10.2402C11.1855 10.0293 11.5742 9.92383 12 9.92383C12.4258 9.92383 12.8125 10.0293 13.1602 10.2402C13.5117 10.4473 13.791 10.7266 13.998 11.0781C14.2051 11.4258 14.3086 11.8125 14.3086 12.2383C14.3086 12.668 14.2051 13.0586 13.998 13.4102C13.791 13.7578 13.5117 14.0352 13.1602 14.2422C12.8125 14.4492 12.4258 14.5527 12 14.5527ZM15.5859 10.082C15.5859 10.293 15.6602 10.4727 15.8086 10.6211C15.9609 10.7656 16.1406 10.8359 16.3477 10.832C16.5469 10.832 16.7207 10.7598 16.8691 10.6152C17.0215 10.4707 17.0977 10.293 17.0977 10.082C17.0977 9.88281 17.0215 9.70898 16.8691 9.56055C16.7207 9.4082 16.5469 9.33203 16.3477 9.33203C16.1406 9.33203 15.9609 9.4082 15.8086 9.56055C15.6602 9.70898 15.5859 9.88281 15.5859 10.082Z" fill="#111111"/>
</svg>
