<svg width="224" height="78" viewBox="0 0 224 78" fill="none" xmlns="http://www.w3.org/2000/svg">
<path d="M179.708 9.34137C175.002 9.67294 170.57 12.2134 167.225 15.4072C165.328 12.974 162.958 10.7701 159.93 9.84848C159.311 9.65832 156.332 8.91227 156.112 9.62418V15.6851C156.112 16.1094 158.038 16.3044 158.57 16.5336C160.364 17.304 161.891 19.3081 162.724 21.0244C161.759 23.2723 160.447 25.4178 159.511 27.7193C155.795 36.8668 153.104 52.6604 156.161 62.1103C158.585 69.5951 165.591 70.541 169.429 63.5438C174.037 55.1424 173.959 39.0074 172.398 29.7039C171.969 27.1342 171.262 24.6425 170.614 22.1216C174.758 15.7875 184.164 13.4909 189.45 19.8152C196.262 27.9582 195.058 47.6966 193.741 57.7267C193.375 60.5255 192.858 63.3342 192.303 66.094L198.91 67.9469C199.3 65.0798 199.953 62.2419 200.353 59.3797C202.576 43.508 204.015 7.62987 179.708 9.34137ZM165.167 55.6056C164.811 57.0684 164.304 59.1115 163.495 60.3598C162.812 61.4081 162.612 60.0233 162.407 59.3504C160.364 52.6897 162.461 40.0607 164.66 33.4146C164.845 32.8538 165.192 31.7079 165.435 31.2545C165.552 31.0399 165.435 30.9473 165.845 31.0204C166.806 39.1683 167.113 47.5698 165.167 55.6007V55.6056Z" fill="#FF5402" stroke="#FF5402" stroke-width="1.46282" stroke-miterlimit="10"/>
<path d="M61.9271 44.5227C61.5565 43.1184 60.4935 40.6999 60.3424 39.4955C60.2351 38.6275 60.5082 38.0521 60.5179 37.3159C60.6788 24.2967 61.6053 9.51247 44.6268 8.55189C37.4589 8.14717 30.3691 10.0732 25.6003 15.6271C25.298 15.9782 23.9766 17.5629 24.2155 17.9335L29.3793 20.4593C31.1737 17.9627 33.6361 16.3 36.5861 15.4125C40.4919 14.2374 46.7381 14.0716 50.2781 16.3097C54.7836 19.1622 54.4277 25.7352 54.6276 30.4211L50.756 27.5881C42.769 23.1752 32.7779 23.7311 27.3996 31.7571C18.7592 44.6495 23.5914 70.5805 42.9396 68.0595C49.4492 67.2111 53.1501 62.9006 55.9832 57.4053C56.5634 56.2838 56.9291 54.8502 57.7483 53.9384L58.5772 67.1672H64.0872C64.2676 67.0502 64.3261 66.9136 64.3602 66.7089C64.5212 65.8214 64.3993 63.6759 64.37 62.6617C64.1847 56.6251 63.4679 50.3642 61.9222 44.5325L61.9271 44.5227ZM53.6865 44.63C52.6089 52.0416 48.7958 63.1883 39.3411 62.1497C25.5467 60.6333 26.6097 32.4593 38.6048 31.0208C43.4077 30.4455 47.9669 32.0107 51.1315 35.658C51.9019 36.5503 53.9937 39.5345 54.0864 40.6121C54.1595 41.4752 53.823 43.6596 53.6816 44.6251L53.6865 44.63Z" fill="#FF5402" stroke="#FF5402" stroke-width="1.46282" stroke-miterlimit="10"/>
<path d="M81.1685 59.5118C69.3733 52.0124 69.3148 28.3731 79.6813 19.6596C85.7618 14.5446 95.0946 15.6027 101.078 20.3032C102.945 19.211 104.408 17.3386 106.129 15.9879C101.594 11.3264 93.9682 9.07363 87.5416 9.52223C58.5143 11.5409 57.3928 65.8019 87.1417 68.4106C93.544 68.9714 101.633 66.9039 105.934 61.94L101.238 57.615C95.8797 61.9937 87.1515 63.3151 81.1637 59.5069L81.1685 59.5118Z" fill="#FF5402" stroke="#FF5402" stroke-width="1.46282" stroke-miterlimit="10"/>
<path d="M154.484 33.7708C154.626 23.9747 144.303 15.7781 130.952 14.6468C131.147 14.1397 131.226 13.5789 131.148 12.9987L130.977 11.7065C130.757 10.0292 129.329 8.78088 127.642 8.78088C127.627 8.78088 127.617 8.78088 127.603 8.78088L126.74 8.79064C125.272 8.80526 123.98 9.7756 123.555 11.1799L123.165 12.4672C122.922 13.2766 122.995 14.0909 123.302 14.7882C111.097 16.29 101.784 23.8187 101.652 33.015C101.633 34.2047 101.779 35.3653 102.057 36.4965C102.281 38.091 103.198 40.6899 105.353 42.8647C105.792 43.3961 106.265 43.9179 106.777 44.4153C106.021 50.408 107.82 56.6737 112.238 61.4571C115.832 65.3434 120.537 67.5815 125.413 68.1276L129.519 68.191C134.083 67.8204 138.559 65.9773 142.187 62.6323C147.214 57.9854 149.482 51.4709 148.911 45.1418C152.354 42.0162 154.426 38.0763 154.489 33.7708H154.484ZM144.625 40.4266L142.28 42.5575L142.567 45.7123C142.987 50.3446 141.27 54.8062 137.862 57.9561C135.399 60.2332 132.337 61.579 129.002 61.8472L127.564 61.9643L126.125 61.8033C122.6 61.4035 119.323 59.7505 116.909 57.1369C114.232 54.2405 112.843 50.4372 112.989 46.5315C113.92 46.6729 114.891 46.746 115.915 46.746C120.615 46.746 126.301 45.2832 132.922 42.3575L130.353 36.5355C125.301 38.7688 116.085 42.0991 111.136 39.3441C110.722 39.1101 110.371 38.8516 110.068 38.5737C108.956 37.1645 107.991 35.3019 108.025 33.1028C108.108 27.3782 115.013 22.2194 124.092 21.1027L127.227 20.7175L130.421 20.9857C140.271 21.8195 148.214 27.5099 148.121 33.6733C148.077 36.6672 146.195 38.9979 144.63 40.4266H144.625Z" fill="#FF5402" stroke="#FF5402" stroke-width="1.46282" stroke-miterlimit="10"/>
</svg>
