<svg width="48" height="48" viewBox="0 0 48 48" fill="none" xmlns="http://www.w3.org/2000/svg">
<path fill-rule="evenodd" clip-rule="evenodd" d="M27.5482 4.8765L27.7417 4.56659C28.3525 3.58268 29.5706 3.16368 30.6587 3.55973L31.434 3.8419C32.5037 4.23125 33.1643 5.30798 33.0266 6.43801L32.9825 6.80235C32.8977 7.50427 32.5296 8.08841 32.0157 8.4705C40.4477 12.4834 45.2392 20.284 42.8832 26.7572C41.8495 29.5972 39.5977 31.7485 36.6322 33.0707C36.486 33.7334 36.2945 34.3942 36.0561 35.0493C33.1367 43.0701 24.2814 47.2105 16.2771 44.2972C8.27283 41.3839 4.15066 32.52 7.06999 24.4992C7.30798 23.8454 7.5854 23.2173 7.89861 22.6167C6.47475 19.6962 6.13161 16.5988 7.16589 13.7571C9.52196 7.28388 18.2067 4.38829 27.2455 6.73426C27.1011 6.12695 27.1858 5.46086 27.5482 4.8765Z" fill="#333333"/>
</svg>
