<svg width="24" height="24" viewBox="0 0 24 24" fill="none" xmlns="http://www.w3.org/2000/svg">
<path d="M7.07812 22.2812C6.10807 22.2812 5.37565 22.0339 4.88086 21.5391C4.38607 21.0443 4.13867 20.3053 4.13867 19.3223V5.34766C4.13867 4.36458 4.38607 3.62565 4.88086 3.13086C5.37565 2.62956 6.10807 2.37891 7.07812 2.37891H11.4922C12.0456 2.37891 12.5013 2.44076 12.8594 2.56445C13.2174 2.68164 13.582 2.92904 13.9531 3.30664L18.9141 8.35547C19.1745 8.6224 19.3698 8.87305 19.5 9.10742C19.6367 9.3418 19.7279 9.60221 19.7734 9.88867C19.819 10.1751 19.8418 10.5234 19.8418 10.9336V19.3223C19.8418 20.3053 19.5944 21.0443 19.0996 21.5391C18.6113 22.0339 17.8789 22.2812 16.9023 22.2812H7.07812ZM7.18555 20.6309H16.7852C17.2474 20.6309 17.5957 20.5104 17.8301 20.2695C18.0645 20.0352 18.1816 19.6934 18.1816 19.2441V11.0996H13.0645C12.446 11.0996 11.9805 10.9466 11.668 10.6406C11.362 10.3346 11.209 9.86914 11.209 9.24414V4.04883H7.19531C6.73307 4.04883 6.38477 4.16927 6.15039 4.41016C5.92253 4.64453 5.80859 4.98307 5.80859 5.42578V19.2441C5.80859 19.6934 5.92253 20.0352 6.15039 20.2695C6.37826 20.5104 6.72331 20.6309 7.18555 20.6309ZM13.2402 9.5957H17.918L12.7031 4.3125V9.06836C12.7031 9.25065 12.7454 9.38411 12.8301 9.46875C12.9147 9.55339 13.0514 9.5957 13.2402 9.5957Z" fill="#F1F1F5"/>
</svg>
