<svg width="60" height="60" viewBox="0 0 60 60" fill="none" xmlns="http://www.w3.org/2000/svg">
<circle cx="30" cy="30" r="30" fill="#323339"/>
<path d="M47.6584 33.0703C50.0189 26.9007 45.3833 19.318 37.1926 15.5068C37.4337 15.231 37.6131 14.894 37.6982 14.5085L37.8897 13.6509C38.1396 12.538 37.5244 11.4164 36.4562 11.0253C36.447 11.0219 36.4408 11.0197 36.4315 11.0163L35.8828 10.8224C34.9501 10.4914 33.9071 10.8062 33.3129 11.597L32.7675 12.3216C32.4255 12.7776 32.2831 13.3101 32.3159 13.8228C24.2403 11.9443 16.5984 14.552 14.3831 20.3441C14.095 21.0929 13.9185 21.8616 13.8323 22.6422C13.6047 23.7038 13.5826 25.5618 14.443 27.4383C14.5976 27.8766 14.7761 28.3166 14.985 28.7501C13.1172 32.3692 12.8039 36.7534 14.4921 40.8062C15.8665 44.0998 18.3268 46.6077 21.2875 48.0838L23.8723 49.0757C26.8479 49.8991 30.1093 49.7698 33.1816 48.493C37.4418 46.7162 40.3876 43.1173 41.4936 38.9777C44.3978 37.7969 46.6232 35.7828 47.6615 33.0714L47.6584 33.0703ZM39.873 34.9988L37.894 35.8042L37.3448 37.8683C36.5365 40.8984 34.4155 43.3254 31.5273 44.5296C29.4403 45.4006 27.1895 45.5428 25.0157 44.9394L24.0778 44.68L23.2043 44.2447C21.0649 43.1743 19.3735 41.3681 18.4512 39.1537C17.4277 36.6993 17.4295 33.9691 18.4276 31.5301C18.9845 31.8356 19.5819 32.1068 20.2302 32.3442C23.2063 33.4339 27.1452 33.8257 32.0159 33.5084L31.7386 29.2265C28.0225 29.4694 21.4155 29.4416 18.9206 26.55C18.7125 26.3057 18.5501 26.0607 18.4231 25.8146C18.0459 24.6647 17.8664 23.2615 18.3978 21.8771C19.7774 18.2718 25.3449 16.6061 31.3522 18.0039L33.4266 18.4869L35.3866 19.397C41.4296 22.2083 45.1396 27.6526 43.6521 31.5334C42.9303 33.4188 41.1983 34.4582 39.8761 34.9999L39.873 34.9988Z" fill="#5E6068"/>
</svg>
