<svg width="28" height="28" viewBox="0 0 28 28" fill="none" xmlns="http://www.w3.org/2000/svg">
<path d="M13.9993 4.66699C14.3537 4.66699 14.6466 4.93033 14.693 5.27201L14.6993 5.36699L14.6985 7.03552C18.006 7.36206 20.6376 9.9937 20.965 13.3027L20.9993 13.3003H22.6327C23.0193 13.3003 23.3327 13.6137 23.3327 14.0003C23.3327 14.3547 23.0693 14.6476 22.7277 14.694L22.6327 14.7003L20.9636 14.6994C20.6376 18.0069 18.006 20.6386 14.697 20.966L14.6993 21.0003V22.6337C14.6993 23.0202 14.3859 23.3337 13.9993 23.3337C13.645 23.3337 13.3521 23.0703 13.3057 22.7287L13.2993 22.6337L13.3003 20.9646C9.99273 20.6386 7.36108 18.0069 7.03368 14.698L6.99935 14.7003H5.36602C4.97942 14.7003 4.66602 14.3869 4.66602 14.0003C4.66602 13.6459 4.92936 13.3531 5.27103 13.3067L5.36602 13.3003L7.03454 13.3012C7.36108 9.9937 9.99273 7.36206 13.3017 7.03465L13.2993 7.00033V5.36699C13.2993 4.9804 13.6128 4.66699 13.9993 4.66699ZM13.9993 8.40033C10.9066 8.40033 8.39935 10.9075 8.39935 14.0003C8.39935 17.0931 10.9066 19.6003 13.9993 19.6003C17.0921 19.6003 19.5993 17.0931 19.5993 14.0003C19.5993 10.9075 17.0921 8.40033 13.9993 8.40033ZM13.9993 10.267C16.0612 10.267 17.7327 11.9385 17.7327 14.0003C17.7327 16.0622 16.0612 17.7337 13.9993 17.7337C11.9375 17.7337 10.266 16.0622 10.266 14.0003C10.266 11.9385 11.9375 10.267 13.9993 10.267Z" fill="#5E6068"/>
</svg>
