<svg width="48" height="48" viewBox="0 0 48 48" fill="none" xmlns="http://www.w3.org/2000/svg">
<path d="M24 40.1484C23.7786 40.1484 23.5573 40.0833 23.3359 39.9531C23.1146 39.8229 22.8151 39.5755 22.4375 39.2109L17.6914 34.6406C17.5352 34.4974 17.4375 34.3411 17.3984 34.1719C17.3724 34.0026 17.4049 33.8398 17.4961 33.6836C18.1341 32.8372 19.026 32.0951 20.1719 31.457C21.3177 30.819 22.5938 30.5 24 30.5C25.3672 30.5 26.6172 30.806 27.75 31.418C28.8958 32.0299 29.7878 32.7461 30.4258 33.5664C30.569 33.7357 30.6211 33.9245 30.582 34.1328C30.556 34.3281 30.4714 34.4974 30.3281 34.6406L25.5625 39.2109C25.1849 39.5885 24.8854 39.8359 24.6641 39.9531C24.4427 40.0833 24.2214 40.1484 24 40.1484ZM12.5742 29.5234L9.54688 26.4961C9.3776 26.3268 9.28646 26.1445 9.27344 25.9492C9.27344 25.7539 9.34505 25.5716 9.48828 25.4023C10.4779 24.1914 11.7148 23.1107 13.1992 22.1602C14.6836 21.2096 16.3438 20.4609 18.1797 19.9141C20.0286 19.3542 21.9688 19.0742 24 19.0742C26.0312 19.0742 27.9648 19.3542 29.8008 19.9141C31.6497 20.4609 33.3164 21.2096 34.8008 22.1602C36.2982 23.1107 37.5352 24.1914 38.5117 25.4023C38.6549 25.5716 38.7201 25.7604 38.707 25.9688C38.694 26.1641 38.6094 26.3398 38.4531 26.4961L35.4258 29.5039C35.2174 29.6992 34.9961 29.7969 34.7617 29.7969C34.5404 29.7969 34.3385 29.6992 34.1562 29.5039C32.9583 28.2018 31.4609 27.1211 29.6641 26.2617C27.8672 25.3893 25.9792 24.9596 24 24.9727C22.0469 24.9596 20.1719 25.3763 18.375 26.2227C16.5781 27.069 15.0938 28.1432 13.9219 29.4453C13.7266 29.6536 13.5052 29.7708 13.2578 29.7969C13.0104 29.8099 12.7826 29.7188 12.5742 29.5234ZM4.46875 21.3594L1.77344 18.625C1.61719 18.4427 1.53255 18.2539 1.51953 18.0586C1.51953 17.8633 1.58464 17.681 1.71484 17.5117C3.23828 15.6237 5.16536 13.9375 7.49609 12.4531C9.82682 10.9688 12.4049 9.80339 15.2305 8.95703C18.056 8.11068 20.9792 7.6875 24 7.6875C27.0208 7.6875 29.944 8.11719 32.7695 8.97656C35.5951 9.82292 38.1732 10.9883 40.5039 12.4727C42.8346 13.944 44.7617 15.6237 46.2852 17.5117C46.4284 17.681 46.4935 17.8633 46.4805 18.0586C46.4805 18.2539 46.3958 18.4427 46.2266 18.625L43.5312 21.3203C43.3359 21.5156 43.1211 21.6198 42.8867 21.6328C42.6523 21.6328 42.444 21.5417 42.2617 21.3594C39.8789 18.8073 37.1315 16.8672 34.0195 15.5391C30.9076 14.2109 27.5677 13.5469 24 13.5469C20.4583 13.5469 17.1315 14.2109 14.0195 15.5391C10.9206 16.8542 8.17318 18.7878 5.77734 21.3398C5.59505 21.5352 5.38021 21.6393 5.13281 21.6523C4.88542 21.6523 4.66406 21.5547 4.46875 21.3594Z" fill="#F1F1F5"/>
</svg>
