<svg width="24" height="24" viewBox="0 0 24 24" fill="none" xmlns="http://www.w3.org/2000/svg">
<path d="M19.8061 16.9366C19.5162 17.6063 19.1732 18.2227 18.7756 18.7894C18.2338 19.5619 17.7901 20.0967 17.4482 20.3936C16.9182 20.8811 16.3503 21.1307 15.7422 21.1449C15.3056 21.1449 14.7791 21.0207 14.1663 20.7687C13.5515 20.5179 12.9864 20.3936 12.4698 20.3936C11.9279 20.3936 11.3468 20.5179 10.7252 20.7687C10.1026 21.0207 9.60111 21.152 9.21767 21.165C8.63452 21.1899 8.05327 20.9331 7.47308 20.3936C7.10278 20.0707 6.6396 19.517 6.08473 18.7326C5.48939 17.8949 4.99995 16.9236 4.61651 15.8163C4.20586 14.6201 4 13.4619 4 12.3406C4 11.0561 4.27755 9.94824 4.83349 9.01987C5.2704 8.27417 5.85166 7.68594 6.57914 7.25411C7.30662 6.82228 8.09267 6.60223 8.93917 6.58815C9.40235 6.58815 10.0098 6.73142 10.7646 7.01299C11.5172 7.29552 12.0005 7.43879 12.2124 7.43879C12.3708 7.43879 12.9077 7.27126 13.8179 6.93728C14.6786 6.62754 15.405 6.4993 16.0001 6.54981C17.6127 6.67995 18.8241 7.31563 19.6298 8.46086C18.1876 9.33469 17.4742 10.5586 17.4884 12.1287C17.5014 13.3516 17.9451 14.3693 18.817 15.1774C19.2122 15.5524 19.6535 15.8423 20.1445 16.0481C20.038 16.3569 19.9256 16.6527 19.8061 16.9366ZM16.1078 2.38344C16.1078 3.34199 15.7576 4.23699 15.0595 5.06539C14.2172 6.0502 13.1983 6.61926 12.0934 6.52947C12.0793 6.41447 12.0712 6.29344 12.0712 6.16626C12.0712 5.24605 12.4718 4.26124 13.1832 3.45603C13.5383 3.04834 13.99 2.70935 14.5378 2.43893C15.0844 2.17254 15.6014 2.02523 16.0876 2C16.1018 2.12814 16.1078 2.25629 16.1078 2.38343V2.38344Z" fill="white"/>
</svg>
