<svg width="34" height="34" viewBox="0 0 34 34" fill="none" xmlns="http://www.w3.org/2000/svg">
<circle cx="17" cy="17" r="15.5" fill="white" stroke="#1A1B1E" stroke-width="3"/>
<path d="M18.5194 8.78711C19.1491 8.78711 19.7318 9.12056 20.0506 9.66351L20.6936 10.7579H22.328C23.7446 10.7579 24.8931 11.9064 24.8931 13.3231V20.8213C24.8931 22.238 23.7446 23.3865 22.328 23.3865H11.6726C10.2559 23.3865 9.10742 22.238 9.10742 20.8213V13.3231C9.10742 11.9064 10.2559 10.7579 11.6726 10.7579H13.3146L14.0049 9.63374C14.328 9.10768 14.901 8.78711 15.5183 8.78711H18.5194ZM17.0003 13.1258C15.0387 13.1258 13.4485 14.716 13.4485 16.6776C13.4485 18.6391 15.0387 20.2294 17.0003 20.2294C18.9619 20.2294 20.5521 18.6391 20.5521 16.6776C20.5521 14.716 18.9619 13.1258 17.0003 13.1258ZM17.0003 14.3097C18.308 14.3097 19.3681 15.3698 19.3681 16.6776C19.3681 17.9853 18.308 19.0454 17.0003 19.0454C15.6925 19.0454 14.6324 17.9853 14.6324 16.6776C14.6324 15.3698 15.6925 14.3097 17.0003 14.3097Z" fill="#2B2C31"/>
</svg>
