<svg width="224" height="78" viewBox="0 0 224 78" fill="none" xmlns="http://www.w3.org/2000/svg">
<path d="M179.708 9.34137C175.003 9.67294 170.57 12.2134 167.225 15.4072C165.329 12.974 162.959 10.7701 159.931 9.84848C159.312 9.65832 156.332 8.91227 156.113 9.62418V15.6851C156.113 16.1094 158.039 16.3044 158.57 16.5336C160.365 17.304 161.891 19.3081 162.725 21.0244C161.759 23.2723 160.448 25.4178 159.511 27.7193C155.796 36.8668 153.104 52.6604 156.162 62.1103C158.585 69.5951 165.592 70.541 169.429 63.5438C174.037 55.1424 173.959 39.0074 172.399 29.7039C171.97 27.1342 171.263 24.6425 170.614 22.1216C174.759 15.7875 184.165 13.4909 189.451 19.8152C196.262 27.9582 195.058 47.6966 193.742 57.7267C193.376 60.5255 192.859 63.3342 192.303 66.094L198.91 67.9469C199.3 65.0798 199.954 62.2419 200.353 59.3797C202.577 43.508 204.015 7.62987 179.708 9.34137ZM165.168 55.6056C164.812 57.0684 164.305 59.1115 163.495 60.3598C162.813 61.4081 162.613 60.0233 162.408 59.3504C160.365 52.6897 162.461 40.0607 164.661 33.4146C164.846 32.8538 165.192 31.7079 165.436 31.2545C165.553 31.0399 165.436 30.9473 165.845 31.0204C166.806 39.1683 167.113 47.5698 165.168 55.6007V55.6056Z" fill="#FF6928" stroke="#FF6928" stroke-width="1.46282" stroke-miterlimit="10"/>
<path d="M61.9266 44.5227C61.556 43.1184 60.493 40.6999 60.3419 39.4955C60.2346 38.6275 60.5077 38.0521 60.5174 37.3159C60.6783 24.2967 61.6048 9.51247 44.6263 8.55189C37.4584 8.14717 30.3686 10.0732 25.5998 15.6271C25.2975 15.9782 23.9761 17.5629 24.215 17.9335L29.3788 20.4593C31.1732 17.9627 33.6356 16.3 36.5856 15.4125C40.4914 14.2374 46.7376 14.0716 50.2777 16.3097C54.7831 19.1622 54.4272 25.7352 54.6271 30.4211L50.7555 27.5881C42.7685 23.1752 32.7774 23.7311 27.3991 31.7571C18.7587 44.6495 23.5909 70.5805 42.9392 68.0595C49.4487 67.2111 53.1497 62.9006 55.9827 57.4053C56.5629 56.2838 56.9286 54.8502 57.7478 53.9384L58.5767 67.1672H64.0867C64.2671 67.0502 64.3256 66.9136 64.3598 66.7089C64.5207 65.8214 64.3988 63.6759 64.3695 62.6617C64.1842 56.6251 63.4674 50.3642 61.9217 44.5325L61.9266 44.5227ZM53.686 44.63C52.6084 52.0416 48.7953 63.1883 39.3406 62.1497C25.5462 60.6333 26.6092 32.4593 38.6043 31.0208C43.4073 30.4455 47.9664 32.0107 51.131 35.658C51.9014 36.5503 53.9932 39.5345 54.0859 40.6121C54.159 41.4752 53.8226 43.6596 53.6812 44.6251L53.686 44.63Z" fill="#FF6928" stroke="#FF6928" stroke-width="1.46282" stroke-miterlimit="10"/>
<path d="M81.1676 59.5118C69.3723 52.0124 69.3138 28.3731 79.6804 19.6596C85.7608 14.5446 95.0936 15.6027 101.077 20.3032C102.944 19.211 104.407 17.3386 106.128 15.9879C101.593 11.3264 93.9673 9.07363 87.5406 9.52223C58.5133 11.5409 57.3918 65.8019 87.1408 68.4106C93.543 68.9714 101.632 66.9039 105.933 61.94L101.237 57.615C95.8787 61.9937 87.1505 63.3151 81.1627 59.5069L81.1676 59.5118Z" fill="#FF6928" stroke="#FF6928" stroke-width="1.46282" stroke-miterlimit="10"/>
<path d="M154.484 33.7708C154.626 23.9747 144.303 15.7781 130.952 14.6468C131.147 14.1397 131.225 13.5789 131.147 12.9987L130.977 11.7065C130.757 10.0292 129.328 8.78088 127.641 8.78088C127.627 8.78088 127.617 8.78088 127.602 8.78088L126.739 8.79064C125.272 8.80526 123.979 9.7756 123.555 11.1799L123.165 12.4672C122.921 13.2766 122.994 14.0909 123.302 14.7882C111.097 16.29 101.784 23.8187 101.652 33.015C101.632 34.2047 101.779 35.3653 102.057 36.4965C102.281 38.091 103.198 40.6899 105.353 42.8647C105.792 43.3961 106.265 43.9179 106.777 44.4153C106.021 50.408 107.82 56.6737 112.238 61.4571C115.832 65.3434 120.537 67.5815 125.413 68.1276L129.519 68.191C134.083 67.8204 138.559 65.9773 142.187 62.6323C147.214 57.9854 149.481 51.4709 148.911 45.1418C152.353 42.0162 154.426 38.0763 154.489 33.7708H154.484ZM144.625 40.4266L142.279 42.5575L142.567 45.7123C142.986 50.3446 141.27 54.8062 137.862 57.9561C135.399 60.2332 132.337 61.579 129.002 61.8472L127.563 61.9643L126.125 61.8033C122.599 61.4035 119.323 59.7505 116.909 57.1369C114.232 54.2405 112.842 50.4372 112.989 46.5315C113.92 46.6729 114.89 46.746 115.914 46.746C120.615 46.746 126.3 45.2832 132.922 42.3575L130.352 36.5355C125.301 38.7688 116.085 42.0991 111.136 39.3441C110.721 39.1101 110.37 38.8516 110.068 38.5737C108.956 37.1645 107.991 35.3019 108.025 33.1028C108.108 27.3782 115.012 22.2194 124.092 21.1027L127.227 20.7175L130.421 20.9857C140.27 21.8195 148.214 27.5099 148.121 33.6733C148.077 36.6672 146.195 38.9979 144.63 40.4266H144.625Z" fill="#FF6928" stroke="#FF6928" stroke-width="1.46282" stroke-miterlimit="10"/>
</svg>
