<svg width="40" height="40" viewBox="0 0 40 40" fill="none" xmlns="http://www.w3.org/2000/svg">
<path fill-rule="evenodd" clip-rule="evenodd" d="M22.9535 4.06267L23.1148 3.8044C23.6238 2.98448 24.6389 2.63531 25.5457 2.96535L26.1917 3.2005C27.0831 3.52495 27.6337 4.42223 27.5189 5.36393L27.4822 5.66754C27.4115 6.25209 27.1051 6.73863 26.6773 7.05705C33.7046 10.401 37.6981 16.9018 35.7346 22.2964C34.873 24.6638 32.9955 26.457 30.5232 27.5588C30.4014 28.1107 30.2419 28.661 30.0433 29.2067C27.6105 35.8907 20.2311 39.3411 13.5608 36.9133C6.89059 34.4855 3.45545 27.099 5.88823 20.415C6.08683 19.8693 6.31839 19.3452 6.57984 18.8441C5.3941 16.4109 5.10854 13.8305 5.9702 11.4631C7.93341 6.0692 15.1696 3.65616 22.7012 5.61016C22.581 5.10424 22.6517 4.54943 22.9535 4.06267Z" fill="white"/>
</svg>
