<svg width="24" height="24" viewBox="0 0 24 24" fill="none" xmlns="http://www.w3.org/2000/svg">
<path d="M5.33334 10.2222C5.33334 7.52216 7.52216 5.33334 10.2222 5.33334C12.9223 5.33334 15.1111 7.52216 15.1111 10.2222C15.1111 12.9223 12.9223 15.1111 10.2222 15.1111C7.52216 15.1111 5.33334 12.9223 5.33334 10.2222ZM10.2222 4C6.78579 4 4 6.78579 4 10.2222C4 13.6587 6.78579 16.4445 10.2222 16.4445C11.7003 16.4445 13.058 15.9291 14.1254 15.0683L18.862 19.8047C19.1223 20.0651 19.5444 20.0651 19.8047 19.8047C20.0651 19.5444 20.0651 19.1223 19.8047 18.862L15.0683 14.1254C15.9291 13.058 16.4445 11.7003 16.4445 10.2222C16.4445 6.78579 13.6587 4 10.2222 4Z" fill="white"/>
</svg>
