<svg width="24" height="24" viewBox="0 0 24 24" fill="none" xmlns="http://www.w3.org/2000/svg">
<path d="M20.8979 19.2559C19.5812 16.9795 17.5521 15.3473 15.1841 14.5735C16.3554 13.8762 17.2655 12.8137 17.7745 11.5491C18.2835 10.2845 18.3633 8.88786 18.0017 7.57353C17.6401 6.25921 16.8571 5.09992 15.7729 4.27369C14.6886 3.44747 13.3632 3 12 3C10.6368 3 9.31135 3.44747 8.22712 4.27369C7.14288 5.09992 6.35984 6.25921 5.99824 7.57353C5.63664 8.88786 5.71647 10.2845 6.22548 11.5491C6.73449 12.8137 7.64454 13.8762 8.81586 14.5735C6.44785 15.3464 4.41876 16.9787 3.10205 19.2559C3.05376 19.3346 3.02173 19.4222 3.00785 19.5135C2.99397 19.6048 2.99852 19.698 3.02123 19.7875C3.04394 19.8771 3.08435 19.9611 3.14008 20.0348C3.19581 20.1084 3.26572 20.1702 3.3457 20.2164C3.42568 20.2626 3.5141 20.2923 3.60574 20.3038C3.69739 20.3152 3.7904 20.3082 3.8793 20.2832C3.96819 20.2581 4.05117 20.2155 4.12333 20.1579C4.19549 20.1002 4.25538 20.0287 4.29945 19.9475C5.92826 17.1325 8.80721 15.4519 12 15.4519C15.1928 15.4519 18.0717 17.1325 19.7005 19.9475C19.7446 20.0287 19.8045 20.1002 19.8767 20.1579C19.9488 20.2155 20.0318 20.2581 20.1207 20.2832C20.2096 20.3082 20.3026 20.3152 20.3942 20.3038C20.4859 20.2923 20.5743 20.2626 20.6543 20.2164C20.7343 20.1702 20.8042 20.1084 20.8599 20.0348C20.9156 19.9611 20.956 19.8771 20.9787 19.7875C21.0015 19.698 21.006 19.6048 20.9921 19.5135C20.9782 19.4222 20.9462 19.3346 20.8979 19.2559ZM7.15851 9.22711C7.15851 8.26955 7.44246 7.3335 7.97445 6.53733C8.50644 5.74115 9.26257 5.12061 10.1472 4.75417C11.0319 4.38773 12.0054 4.29185 12.9445 4.47866C13.8837 4.66547 14.7463 5.12657 15.4234 5.80367C16.1005 6.48076 16.5616 7.34343 16.7484 8.28258C16.9352 9.22174 16.8394 10.1952 16.4729 11.0799C16.1065 11.9645 15.4859 12.7207 14.6898 13.2526C13.8936 13.7846 12.9575 14.0686 12 14.0686C10.7164 14.0672 9.48572 13.5567 8.57807 12.649C7.67041 11.7414 7.15989 10.5107 7.15851 9.22711Z" fill="white"/>
</svg>
