<svg width="48" height="48" viewBox="0 0 48 48" fill="none" xmlns="http://www.w3.org/2000/svg">
<path fill-rule="evenodd" clip-rule="evenodd" d="M27.5438 4.87626L27.7373 4.56634C28.3481 3.58244 29.5662 3.16344 30.6543 3.55948L31.4296 3.84165C32.4993 4.231 33.1599 5.30773 33.0222 6.43777L32.9781 6.80211C32.8933 7.50402 32.5252 8.08816 32.0113 8.47025C40.4433 12.4832 45.2348 20.2837 42.8788 26.7569C41.8451 29.5969 39.5933 31.7483 36.6278 33.0705C36.4816 33.7332 36.2901 34.3939 36.0517 35.049C33.1324 43.0698 24.277 47.2103 16.2727 44.297C8.26843 41.3836 4.14626 32.5198 7.0656 24.499C7.30358 23.8451 7.58101 23.217 7.89421 22.6165C6.47036 19.696 6.12722 16.5985 7.16149 13.7569C9.51756 7.28363 18.2023 4.38805 27.2411 6.73401C27.0967 6.1267 27.1814 5.46062 27.5438 4.87626Z" fill="white"/>
</svg>
