<svg width="24" height="24" viewBox="0 0 24 24" fill="none" xmlns="http://www.w3.org/2000/svg">
<path d="M13.2727 15.6957C13.6242 15.6957 13.9091 15.9877 13.9091 16.3478C13.9091 16.708 13.6242 17 13.2727 17H10.7273C10.3758 17 10.0909 16.708 10.0909 16.3478C10.0909 15.9877 10.3758 15.6957 10.7273 15.6957H13.2727ZM15.8182 11.3478C16.1696 11.3478 16.4545 11.6398 16.4545 12C16.4545 12.3602 16.1696 12.6522 15.8182 12.6522H8.18182C7.83037 12.6522 7.54545 12.3602 7.54545 12C7.54545 11.6398 7.83037 11.3478 8.18182 11.3478H15.8182ZM18.3636 7C18.7151 7 19 7.29199 19 7.65217C19 8.01236 18.7151 8.30435 18.3636 8.30435H5.63636C5.28491 8.30435 5 8.01236 5 7.65217C5 7.29199 5.28491 7 5.63636 7H18.3636Z" fill="#1A1B1E"/>
</svg>
