<svg width="24" height="24" viewBox="0 0 24 24" fill="none" xmlns="http://www.w3.org/2000/svg">
<path d="M4.71484 7.74949C4.71484 7.57899 4.78257 7.41548 4.90313 7.29492C5.02369 7.17436 5.1872 7.10663 5.3577 7.10663H8.34458C8.48314 6.64246 8.7678 6.23541 9.15624 5.94599C9.54468 5.65658 10.0162 5.50024 10.5006 5.50024C10.985 5.50024 11.4564 5.65658 11.8449 5.94599C12.2333 6.23541 12.518 6.64246 12.6565 7.10663H19.5006C19.6711 7.10663 19.8346 7.17436 19.9551 7.29492C20.0757 7.41548 20.1434 7.57899 20.1434 7.74949C20.1434 7.91998 20.0757 8.0835 19.9551 8.20405C19.8346 8.32461 19.6711 8.39234 19.5006 8.39234H12.6565C12.518 8.85651 12.2333 9.26356 11.8449 9.55298C11.4564 9.8424 10.985 9.99873 10.5006 9.99873C10.0162 9.99873 9.54468 9.8424 9.15624 9.55298C8.7678 9.26356 8.48314 8.85651 8.34458 8.39234H5.3577C5.1872 8.39234 5.02369 8.32461 4.90313 8.20405C4.78257 8.0835 4.71484 7.91998 4.71484 7.74949ZM19.5006 14.8209H17.7994C17.6608 14.3568 17.3762 13.9497 16.9877 13.6603C16.5993 13.3709 16.1278 13.2145 15.6434 13.2145C15.159 13.2145 14.6875 13.3709 14.2991 13.6603C13.9107 13.9497 13.626 14.3568 13.4874 14.8209H5.3577C5.1872 14.8209 5.02369 14.8886 4.90313 15.0092C4.78257 15.1298 4.71484 15.2933 4.71484 15.4638C4.71484 15.6343 4.78257 15.7978 4.90313 15.9183C5.02369 16.0389 5.1872 16.1066 5.3577 16.1066H13.4874C13.626 16.5708 13.9107 16.9778 14.2991 17.2673C14.6875 17.5567 15.159 17.713 15.6434 17.713C16.1278 17.713 16.5993 17.5567 16.9877 17.2673C17.3762 16.9778 17.6608 16.5708 17.7994 16.1066H19.5006C19.6711 16.1066 19.8346 16.0389 19.9551 15.9183C20.0757 15.7978 20.1434 15.6343 20.1434 15.4638C20.1434 15.2933 20.0757 15.1298 19.9551 15.0092C19.8346 14.8886 19.6711 14.8209 19.5006 14.8209Z" fill="#F1F1F5"/>
</svg>
