<svg width="24" height="24" viewBox="0 0 24 24" fill="none" xmlns="http://www.w3.org/2000/svg">
<path d="M20 10.7278V19.4551C20 19.8409 19.8468 20.2109 19.574 20.4836C19.3012 20.7564 18.9312 20.9097 18.5455 20.9097H5.45455C5.06878 20.9097 4.69881 20.7564 4.42603 20.4836C4.15325 20.2109 4 19.8409 4 19.4551V10.7278C4 10.3421 4.15325 9.97211 4.42603 9.69933C4.69881 9.42655 5.06878 9.2733 5.45455 9.2733H7.63636C7.82925 9.2733 8.01423 9.34992 8.15062 9.48631C8.28701 9.6227 8.36364 9.80769 8.36364 10.0006C8.36364 10.1935 8.28701 10.3784 8.15062 10.5148C8.01423 10.6512 7.82925 10.7278 7.63636 10.7278H5.45455V19.4551H18.5455V10.7278H16.3636C16.1708 10.7278 15.9858 10.6512 15.8494 10.5148C15.713 10.3784 15.6364 10.1935 15.6364 10.0006C15.6364 9.80769 15.713 9.6227 15.8494 9.48631C15.9858 9.34992 16.1708 9.2733 16.3636 9.2733H18.5455C18.9312 9.2733 19.3012 9.42655 19.574 9.69933C19.8468 9.97211 20 10.3421 20 10.7278ZM8.87818 6.87875L11.2727 4.4833V12.9097C11.2727 13.1025 11.3494 13.2875 11.4857 13.4239C11.6221 13.5603 11.8071 13.6369 12 13.6369C12.1929 13.6369 12.3779 13.5603 12.5143 13.4239C12.6507 13.2875 12.7273 13.1025 12.7273 12.9097V4.4833L15.1218 6.87875C15.2583 7.01522 15.4434 7.09189 15.6364 7.09189C15.8294 7.09189 16.0144 7.01522 16.1509 6.87875C16.2874 6.74229 16.364 6.5572 16.364 6.36421C16.364 6.17122 16.2874 5.98613 16.1509 5.84966L12.5145 2.2133C12.447 2.14568 12.3668 2.09204 12.2785 2.05544C12.1902 2.01884 12.0956 2 12 2C11.9044 2 11.8098 2.01884 11.7215 2.05544C11.6332 2.09204 11.553 2.14568 11.4855 2.2133L7.84909 5.84966C7.71262 5.98613 7.63596 6.17122 7.63596 6.36421C7.63596 6.5572 7.71263 6.74229 7.84909 6.87875C7.98556 7.01522 8.17064 7.09189 8.36364 7.09189C8.55663 7.09189 8.74172 7.01522 8.87818 6.87875Z" fill="white"/>
</svg>
