<svg width="16" height="16" viewBox="0 0 16 16" fill="none" xmlns="http://www.w3.org/2000/svg">
<path d="M8 3.83333C5.69881 3.83333 3.83333 5.69881 3.83333 8C3.83333 10.3012 5.69881 12.1667 8 12.1667C10.3012 12.1667 12.1667 10.3012 12.1667 8C12.1667 7.79089 12.1513 7.58544 12.1216 7.38461C12.0842 7.13233 12.2688 6.88889 12.5238 6.88889C12.7299 6.88889 12.9106 7.03122 12.9418 7.23489C12.9801 7.48433 13 7.73983 13 8C13 10.7614 10.7614 13 8 13C5.23858 13 3 10.7614 3 8C3 5.23858 5.23858 3 8 3C9.28061 3 10.4487 3.48142 11.3333 4.27316V3.69444C11.3333 3.46433 11.5199 3.27778 11.75 3.27778C11.9801 3.27778 12.1667 3.46433 12.1667 3.69444V5.36111C12.1667 5.59123 11.9801 5.77778 11.75 5.77778H10.0833C9.85322 5.77778 9.66667 5.59123 9.66667 5.36111C9.66667 5.13099 9.85322 4.94444 10.0833 4.94444H10.8328C10.0894 4.25491 9.09394 3.83333 8 3.83333Z" fill="white"/>
</svg>
