<svg width="18" height="18" viewBox="0 0 18 18" fill="none" xmlns="http://www.w3.org/2000/svg">
<path d="M9 17.2578C7.95833 17.2578 6.97917 17.0573 6.0625 16.6562C5.15104 16.2604 4.34635 15.7135 3.64844 15.0156C2.95052 14.3177 2.40104 13.513 2 12.6016C1.60417 11.6849 1.40625 10.7057 1.40625 9.66406C1.40625 8.6276 1.60417 7.65104 2 6.73438C2.39583 5.81771 2.94271 5.01042 3.64062 4.3125C4.34375 3.61458 5.15104 3.06771 6.0625 2.67188C6.97917 2.27604 7.95573 2.07812 8.99219 2.07812C10.0286 2.07812 11.0052 2.27604 11.9219 2.67188C12.8385 3.06771 13.6458 3.61458 14.3438 4.3125C15.0417 5.01042 15.5885 5.81771 15.9844 6.73438C16.3854 7.65104 16.5859 8.6276 16.5859 9.66406C16.5859 10.7057 16.388 11.6849 15.9922 12.6016C15.5964 13.513 15.0495 14.3177 14.3516 15.0156C13.6536 15.7135 12.8464 16.2604 11.9297 16.6562C11.013 17.0573 10.0365 17.2578 9 17.2578ZM9 15.8672C9.85938 15.8672 10.6641 15.7057 11.4141 15.3828C12.1641 15.0651 12.8229 14.6224 13.3906 14.0547C13.9583 13.487 14.401 12.8281 14.7188 12.0781C15.0365 11.3281 15.1953 10.5234 15.1953 9.66406C15.1953 8.80469 15.0365 8 14.7188 7.25C14.401 6.5 13.9583 5.84115 13.3906 5.27344C12.8229 4.70573 12.1615 4.26302 11.4062 3.94531C10.6562 3.6276 9.85156 3.46875 8.99219 3.46875C8.13281 3.46875 7.32812 3.6276 6.57812 3.94531C5.83333 4.26302 5.17708 4.70573 4.60938 5.27344C4.04167 5.84115 3.59896 6.5 3.28125 7.25C2.96354 8 2.80469 8.80469 2.80469 9.66406C2.80469 10.5234 2.96354 11.3281 3.28125 12.0781C3.59896 12.8281 4.04167 13.487 4.60938 14.0547C5.17708 14.6224 5.83594 15.0651 6.58594 15.3828C7.33594 15.7057 8.14062 15.8672 9 15.8672ZM8.1875 13.1797C8.05729 13.1797 7.9401 13.151 7.83594 13.0938C7.73177 13.0365 7.63021 12.9427 7.53125 12.8125L5.75781 10.6484C5.63802 10.4922 5.57812 10.3307 5.57812 10.1641C5.57812 9.99219 5.63542 9.84635 5.75 9.72656C5.86979 9.60677 6.01562 9.54688 6.1875 9.54688C6.29688 9.54688 6.39583 9.56771 6.48438 9.60938C6.57292 9.65104 6.66146 9.72917 6.75 9.84375L8.16406 11.6562L11.1484 6.86719C11.2995 6.63281 11.4844 6.51562 11.7031 6.51562C11.8646 6.51562 12.0104 6.56771 12.1406 6.67188C12.2708 6.77604 12.3359 6.91406 12.3359 7.08594C12.3359 7.17448 12.3177 7.26042 12.2812 7.34375C12.2448 7.42708 12.2031 7.50521 12.1562 7.57812L8.8125 12.8125C8.66146 13.0573 8.45312 13.1797 8.1875 13.1797Z" fill="#04B014"/>
</svg>
