<svg width="80" height="80" viewBox="0 0 80 80" fill="none" xmlns="http://www.w3.org/2000/svg">
<path d="M72.4031 29.3156L67.9219 13.625C67.6205 12.5841 66.9904 11.6686 66.1259 11.0153C65.2613 10.3619 64.2086 10.0058 63.125 10H16.875C15.7914 10.0058 14.7387 10.3619 13.8741 11.0153C13.0096 11.6686 12.3795 12.5841 12.0781 13.625L7.59687 29.3156C7.53281 29.5381 7.5002 29.7685 7.5 30V35C7.5 36.9406 7.95181 38.8545 8.81966 40.5902C9.68751 42.3259 10.9475 43.8357 12.5 45V67.5C12.5 68.163 12.7634 68.7989 13.2322 69.2678C13.7011 69.7366 14.337 70 15 70H65C65.663 70 66.2989 69.7366 66.7678 69.2678C67.2366 68.7989 67.5 68.163 67.5 67.5V45C69.0525 43.8357 70.3125 42.3259 71.1803 40.5902C72.0482 38.8545 72.5 36.9406 72.5 35V30C72.4998 29.7685 72.4672 29.5381 72.4031 29.3156ZM27.5 35C27.4995 36.2897 27.1665 37.5575 26.5331 38.6809C25.8997 39.8044 24.9872 40.7455 23.8839 41.4134C22.7806 42.0812 21.5238 42.4533 20.2347 42.4937C18.9456 42.5341 17.6679 42.2413 16.525 41.6437C16.3511 41.5084 16.1598 41.397 15.9563 41.3125C14.8971 40.6344 14.0255 39.701 13.4215 38.5979C12.8176 37.4948 12.5007 36.2576 12.5 35V32.5H27.5V35ZM47.5 35C47.5 36.9891 46.7098 38.8968 45.3033 40.3033C43.8968 41.7098 41.9891 42.5 40 42.5C38.0109 42.5 36.1032 41.7098 34.6967 40.3033C33.2902 38.8968 32.5 36.9891 32.5 35V32.5H47.5V35ZM67.5 35C67.499 36.2579 67.1816 37.4953 66.5771 38.5984C65.9726 39.7015 65.1003 40.6348 64.0406 41.3125C63.8397 41.3971 63.6507 41.5074 63.4781 41.6406C62.3353 42.2388 61.0576 42.5321 59.7683 42.4923C58.4791 42.4525 57.2219 42.0808 56.1182 41.4132C55.0145 40.7456 54.1017 39.8046 53.4679 38.6812C52.8341 37.5578 52.5007 36.2899 52.5 35V32.5H67.5V35Z" fill="#37383E"/>
</svg>
