<svg width="24" height="24" viewBox="0 0 24 24" fill="none" xmlns="http://www.w3.org/2000/svg">
<path d="M15.4863 7.10547C15.6165 7.10547 15.8184 7.11849 16.0918 7.14453C16.3717 7.17057 16.6842 7.23893 17.0293 7.34961C17.3809 7.46029 17.7389 7.63932 18.1035 7.88672C18.4681 8.13411 18.8034 8.47917 19.1094 8.92188C19.0833 8.94141 18.9694 9.02604 18.7676 9.17578C18.5658 9.31901 18.3379 9.5306 18.084 9.81055C17.8301 10.0905 17.6087 10.4453 17.4199 10.875C17.2311 11.3047 17.1367 11.8125 17.1367 12.3984C17.1367 13.0755 17.2572 13.6517 17.498 14.127C17.7389 14.5957 18.0156 14.9733 18.3281 15.2598C18.6471 15.5462 18.9303 15.7578 19.1777 15.8945C19.4316 16.0247 19.5651 16.0931 19.5781 16.0996C19.5781 16.1191 19.5326 16.2559 19.4414 16.5098C19.3568 16.7637 19.2233 17.0859 19.041 17.4766C18.8587 17.8607 18.6211 18.2676 18.3281 18.6973C18.0677 19.0684 17.7975 19.4264 17.5176 19.7715C17.2376 20.1165 16.9316 20.3997 16.5996 20.6211C16.2741 20.8424 15.903 20.9531 15.4863 20.9531C15.0697 20.9531 14.7279 20.8913 14.4609 20.7676C14.194 20.6439 13.9173 20.5202 13.6309 20.3965C13.3509 20.2793 12.9733 20.2207 12.498 20.2207C12.0293 20.2207 11.6387 20.2826 11.3262 20.4062C11.0202 20.5299 10.7272 20.6536 10.4473 20.7773C10.1673 20.9076 9.83854 20.9727 9.46094 20.9727C8.88802 20.9727 8.38346 20.7448 7.94727 20.2891C7.51758 19.8333 7.07487 19.2865 6.61914 18.6484C6.26758 18.1471 5.94531 17.5677 5.65234 16.9102C5.36589 16.2461 5.13802 15.5462 4.96875 14.8105C4.79948 14.0684 4.71484 13.3262 4.71484 12.584C4.71484 11.4056 4.9362 10.4128 5.37891 9.60547C5.82812 8.79818 6.4043 8.18945 7.10742 7.7793C7.81055 7.36263 8.53971 7.1543 9.29492 7.1543C9.69857 7.1543 10.0762 7.2194 10.4277 7.34961C10.7858 7.47982 11.1178 7.61328 11.4238 7.75C11.7298 7.88021 12.013 7.94531 12.2734 7.94531C12.5078 7.94531 12.7878 7.87695 13.1133 7.74023C13.4388 7.59701 13.8001 7.45703 14.1973 7.32031C14.6009 7.17708 15.0306 7.10547 15.4863 7.10547ZM14.8418 5.61133C14.5358 5.98242 14.1484 6.29167 13.6797 6.53906C13.2174 6.77995 12.778 6.90039 12.3613 6.90039C12.2767 6.90039 12.1953 6.89388 12.1172 6.88086C12.1107 6.85482 12.1009 6.8125 12.0879 6.75391C12.0814 6.6888 12.0781 6.62044 12.0781 6.54883C12.0781 6.08008 12.179 5.62435 12.3809 5.18164C12.5892 4.73893 12.8236 4.37109 13.084 4.07812C13.416 3.6875 13.8327 3.36198 14.334 3.10156C14.8353 2.84115 15.3138 2.70117 15.7695 2.68164C15.7956 2.79232 15.8086 2.91602 15.8086 3.05273C15.8086 3.52148 15.7174 3.98047 15.5352 4.42969C15.3529 4.8724 15.1217 5.26628 14.8418 5.61133Z" fill="#F1F1F5"/>
</svg>
