<svg width="21" height="20" viewBox="0 0 21 20" fill="none" xmlns="http://www.w3.org/2000/svg">
<path fill-rule="evenodd" clip-rule="evenodd" d="M9.1239 2.25516L9.16087 2.06021C9.27654 1.44198 9.76424 1 10.3283 1H10.7301C11.2846 1 11.7663 1.42862 11.8916 2.0335L11.9321 2.22845C11.9493 2.31109 11.9592 2.39337 11.9625 2.47455C15.0629 3.18892 17.369 5.89065 17.369 9.11446C17.369 13.7863 12.553 19.012 10.3281 19.012C8.10313 19.012 3.28711 13.9605 3.28711 9.11446C3.28711 5.74971 5.79924 2.95367 9.1047 2.39237C9.10896 2.34687 9.11533 2.30109 9.1239 2.25516ZM8.12526 8.25062C8.12526 9.59394 9.20994 10.6505 10.5399 10.6505C11.8708 10.6505 12.9659 9.59394 12.9659 8.25062C12.9659 6.91776 11.8708 5.80981 10.5399 5.80981C9.20994 5.80981 8.12526 6.91776 8.12526 8.25062Z" fill="#D9DADD"/>
</svg>
