<svg width="40" height="40" viewBox="0 0 40 40" fill="none" xmlns="http://www.w3.org/2000/svg">
<path fill-rule="evenodd" clip-rule="evenodd" d="M22.9537 4.06267L23.115 3.8044C23.624 2.98448 24.639 2.63531 25.5458 2.96535L26.1918 3.2005C27.0833 3.52495 27.6338 4.42223 27.519 5.36393L27.4823 5.66754C27.4116 6.25209 27.1053 6.73863 26.6774 7.05705C33.7047 10.401 37.6982 16.9018 35.7347 22.2964C34.8731 24.6638 32.9957 26.457 30.5233 27.5588C30.4015 28.1107 30.242 28.661 30.0434 29.2067C27.6107 35.8907 20.2312 39.3411 13.561 36.9133C6.89072 34.4855 3.45557 27.099 5.88835 20.415C6.08695 19.8693 6.31851 19.3452 6.57996 18.8441C5.39422 16.4109 5.10866 13.8305 5.97032 11.4631C7.93354 6.0692 15.1697 3.65616 22.7013 5.61016C22.5811 5.10424 22.6518 4.54943 22.9537 4.06267Z" fill="#323339"/>
</svg>
