<svg width="21" height="20" viewBox="0 0 21 20" fill="none" xmlns="http://www.w3.org/2000/svg">
<path fill-rule="evenodd" clip-rule="evenodd" d="M12.1542 2.48881L12.2302 2.36714C12.47 1.98089 12.9482 1.8164 13.3754 1.97188L13.6797 2.08265C14.0996 2.2355 14.359 2.65819 14.3049 3.10181L14.2876 3.24484C14.2543 3.52025 14.11 3.74946 13.9084 3.89947C17.2192 5.47468 19.1008 8.53733 18.1757 11.0788C17.7698 12.1942 16.8851 13.0391 15.7201 13.5581C15.6627 13.818 15.5876 14.0772 15.4941 14.3341C14.3481 17.4829 10.8717 19.1083 7.72945 17.9646C4.5872 16.8209 2.96895 13.3412 4.115 10.1925C4.20863 9.93524 4.31781 9.68816 4.44109 9.45193C3.88273 8.30585 3.74831 7.09044 4.15416 5.97536C5.07896 3.43449 8.48756 2.29773 12.0354 3.21802C11.9787 2.97963 12.012 2.71818 12.1542 2.48881Z" fill="#D9DADD"/>
</svg>
