<svg width="28" height="28" viewBox="0 0 28 28" fill="none" xmlns="http://www.w3.org/2000/svg">
<path d="M5.5 9.04111C5.5 8.8422 5.57902 8.65143 5.71967 8.51078C5.86032 8.37013 6.05109 8.29111 6.25 8.29111H9.73469C9.89635 7.74958 10.2285 7.27469 10.6816 6.93703C11.1348 6.59938 11.6849 6.41699 12.25 6.41699C12.8151 6.41699 13.3652 6.59938 13.8184 6.93703C14.2715 7.27469 14.6037 7.74958 14.7653 8.29111H22.75C22.9489 8.29111 23.1397 8.37013 23.2803 8.51078C23.421 8.65143 23.5 8.8422 23.5 9.04111C23.5 9.24002 23.421 9.43079 23.2803 9.57144C23.1397 9.71209 22.9489 9.79111 22.75 9.79111H14.7653C14.6037 10.3326 14.2715 10.8075 13.8184 11.1452C13.3652 11.4828 12.8151 11.6652 12.25 11.6652C11.6849 11.6652 11.1348 11.4828 10.6816 11.1452C10.2285 10.8075 9.89635 10.3326 9.73469 9.79111H6.25C6.05109 9.79111 5.86032 9.71209 5.71967 9.57144C5.57902 9.43079 5.5 9.24002 5.5 9.04111ZM22.75 17.2911H20.7653C20.6037 16.7496 20.2715 16.2747 19.8184 15.937C19.3652 15.5994 18.8151 15.417 18.25 15.417C17.6849 15.417 17.1348 15.5994 16.6816 15.937C16.2285 16.2747 15.8963 16.7496 15.7347 17.2911H6.25C6.05109 17.2911 5.86032 17.3701 5.71967 17.5108C5.57902 17.6514 5.5 17.8422 5.5 18.0411C5.5 18.24 5.57902 18.4308 5.71967 18.5714C5.86032 18.7121 6.05109 18.7911 6.25 18.7911H15.7347C15.8963 19.3326 16.2285 19.8075 16.6816 20.1452C17.1348 20.4828 17.6849 20.6652 18.25 20.6652C18.8151 20.6652 19.3652 20.4828 19.8184 20.1452C20.2715 19.8075 20.6037 19.3326 20.7653 18.7911H22.75C22.9489 18.7911 23.1397 18.7121 23.2803 18.5714C23.421 18.4308 23.5 18.24 23.5 18.0411C23.5 17.8422 23.421 17.6514 23.2803 17.5108C23.1397 17.3701 22.9489 17.2911 22.75 17.2911Z" fill="white"/>
</svg>
