<svg width="24" height="24" viewBox="0 0 24 24" fill="none" xmlns="http://www.w3.org/2000/svg">
<path d="M4.71484 7.74924C4.71484 7.57875 4.78257 7.41523 4.90313 7.29467C5.02369 7.17411 5.1872 7.10638 5.3577 7.10638H8.34458C8.48314 6.64222 8.7678 6.23517 9.15624 5.94575C9.54468 5.65633 10.0162 5.5 10.5006 5.5C10.985 5.5 11.4564 5.65633 11.8449 5.94575C12.2333 6.23517 12.518 6.64222 12.6565 7.10638H19.5006C19.6711 7.10638 19.8346 7.17411 19.9551 7.29467C20.0757 7.41523 20.1434 7.57875 20.1434 7.74924C20.1434 7.91974 20.0757 8.08325 19.9551 8.20381C19.8346 8.32437 19.6711 8.3921 19.5006 8.3921H12.6565C12.518 8.85626 12.2333 9.26331 11.8449 9.55273C11.4564 9.84215 10.985 9.99848 10.5006 9.99848C10.0162 9.99848 9.54468 9.84215 9.15624 9.55273C8.7678 9.26331 8.48314 8.85626 8.34458 8.3921H5.3577C5.1872 8.3921 5.02369 8.32437 4.90313 8.20381C4.78257 8.08325 4.71484 7.91974 4.71484 7.74924ZM19.5006 14.8207H17.7994C17.6608 14.3565 17.3762 13.9495 16.9877 13.66C16.5993 13.3706 16.1278 13.2143 15.6434 13.2143C15.159 13.2143 14.6875 13.3706 14.2991 13.66C13.9107 13.9495 13.626 14.3565 13.4874 14.8207H5.3577C5.1872 14.8207 5.02369 14.8884 4.90313 15.009C4.78257 15.1295 4.71484 15.293 4.71484 15.4635C4.71484 15.634 4.78257 15.7975 4.90313 15.9181C5.02369 16.0387 5.1872 16.1064 5.3577 16.1064H13.4874C13.626 16.5705 13.9107 16.9776 14.2991 17.267C14.6875 17.5564 15.159 17.7128 15.6434 17.7128C16.1278 17.7128 16.5993 17.5564 16.9877 17.267C17.3762 16.9776 17.6608 16.5705 17.7994 16.1064H19.5006C19.6711 16.1064 19.8346 16.0387 19.9551 15.9181C20.0757 15.7975 20.1434 15.634 20.1434 15.4635C20.1434 15.293 20.0757 15.1295 19.9551 15.009C19.8346 14.8884 19.6711 14.8207 19.5006 14.8207Z" fill="white"/>
</svg>
