<svg width="24" height="24" viewBox="0 0 24 24" fill="none" xmlns="http://www.w3.org/2000/svg">
<path d="M20 10.7278V19.4551C20 19.8409 19.8468 20.2109 19.574 20.4836C19.3012 20.7564 18.9312 20.9097 18.5455 20.9097H5.45455C5.06878 20.9097 4.69881 20.7564 4.42603 20.4836C4.15325 20.2109 4 19.8409 4 19.4551V10.7278C4 10.3421 4.15325 9.97211 4.42603 9.69933C4.69881 9.42655 5.06878 9.2733 5.45455 9.2733H11.2727V13.6369C11.2727 13.8298 11.3494 14.0148 11.4857 14.1512C11.6221 14.2876 11.8071 14.3642 12 14.3642C12.1929 14.3642 12.3779 14.2876 12.5143 14.1512C12.6507 14.0148 12.7273 13.8298 12.7273 13.6369V9.2733H18.5455C18.9312 9.2733 19.3012 9.42655 19.574 9.69933C19.8468 9.97211 20 10.3421 20 10.7278ZM12.7273 4.4833L15.1218 6.87875C15.2583 7.01522 15.4434 7.09189 15.6364 7.09189C15.8294 7.09189 16.0144 7.01522 16.1509 6.87875C16.2874 6.74229 16.364 6.5572 16.364 6.36421C16.364 6.17122 16.2874 5.98613 16.1509 5.84966L12.5145 2.2133C12.447 2.14568 12.3668 2.09204 12.2785 2.05544C12.1902 2.01884 12.0956 2 12 2C11.9044 2 11.8098 2.01884 11.7215 2.05544C11.6332 2.09204 11.553 2.14568 11.4855 2.2133L7.84909 5.84966C7.71262 5.98613 7.63596 6.17122 7.63596 6.36421C7.63596 6.5572 7.71263 6.74229 7.84909 6.87875C7.98556 7.01522 8.17064 7.09189 8.36364 7.09189C8.55663 7.09189 8.74172 7.01522 8.87818 6.87875L11.2727 4.4833V9.2733H12.7273V4.4833Z" fill="white"/>
</svg>
