<svg width="36" height="36" viewBox="0 0 36 36" fill="none" xmlns="http://www.w3.org/2000/svg">
<g clip-path="url(#clip0_1_859)">
<g filter="url(#filter0_d_1_859)">
<path d="M22.9922 18.8223C23.2038 18.8223 23.3787 18.8955 23.5171 19.042C23.6636 19.1803 23.7368 19.3553 23.7368 19.5669C23.7368 19.7785 23.6636 19.9575 23.5171 20.104C23.3787 20.2505 23.2038 20.3237 22.9922 20.3237H13.7271C13.5073 20.3237 13.3242 20.2505 13.1777 20.104C13.0312 19.9575 12.958 19.7785 12.958 19.5669C12.958 19.3553 13.0312 19.1803 13.1777 19.042C13.3242 18.8955 13.5073 18.8223 13.7271 18.8223H22.9922ZM22.9922 23.0825C23.2038 23.0825 23.3787 23.1558 23.5171 23.3022C23.6636 23.4487 23.7368 23.6318 23.7368 23.8516C23.7368 24.055 23.6636 24.23 23.5171 24.3765C23.3787 24.5148 23.2038 24.584 22.9922 24.584H13.7271C13.5073 24.584 13.3242 24.5148 13.1777 24.3765C13.0312 24.23 12.958 24.055 12.958 23.8516C12.958 23.6318 13.0312 23.4487 13.1777 23.3022C13.3242 23.1558 13.5073 23.0825 13.7271 23.0825H22.9922ZM12.0181 30.2725C10.7567 30.2725 9.80859 29.9551 9.17383 29.3203C8.5472 28.6855 8.23389 27.7293 8.23389 26.4517V7.93359C8.23389 6.66406 8.5472 5.70785 9.17383 5.06494C9.80859 4.42204 10.7567 4.10059 12.0181 4.10059H17.8164C18.2721 4.10059 18.6709 4.13314 19.0127 4.19824C19.3626 4.25521 19.6841 4.36914 19.9771 4.54004C20.27 4.7028 20.5711 4.94287 20.8804 5.26025L27.6064 12.1084C27.932 12.4421 28.1761 12.7594 28.3389 13.0605C28.5098 13.3535 28.6237 13.679 28.6807 14.0371C28.7376 14.3952 28.7661 14.8387 28.7661 15.3677V26.4517C28.7661 27.7212 28.4487 28.6733 27.814 29.3081C27.1873 29.951 26.2433 30.2725 24.9819 30.2725H12.0181ZM12.1035 28.3071H24.8843C25.519 28.3071 25.9951 28.1444 26.3125 27.8188C26.638 27.4933 26.8008 27.0254 26.8008 26.415V15.4531H19.8428C19.0778 15.4531 18.5041 15.2619 18.1216 14.8794C17.7391 14.4969 17.5479 13.9232 17.5479 13.1582V6.06592H12.1157C11.481 6.06592 11.0008 6.23275 10.6753 6.56641C10.3579 6.90007 10.1992 7.368 10.1992 7.97021V26.415C10.1992 27.0254 10.3579 27.4933 10.6753 27.8188C11.0008 28.1444 11.4769 28.3071 12.1035 28.3071ZM20.0625 13.6099H26.4224L19.3911 6.44434V12.9263C19.3911 13.1704 19.4399 13.3454 19.5376 13.4512C19.6434 13.557 19.8184 13.6099 20.0625 13.6099Z" fill="#F1F1F5"/>
</g>
</g>
<defs>
<filter id="filter0_d_1_859" x="4.23389" y="4.10059" width="28.5322" height="34.1719" filterUnits="userSpaceOnUse" color-interpolation-filters="sRGB">
<feFlood flood-opacity="0" result="BackgroundImageFix"/>
<feColorMatrix in="SourceAlpha" type="matrix" values="0 0 0 0 0 0 0 0 0 0 0 0 0 0 0 0 0 0 127 0" result="hardAlpha"/>
<feOffset dy="4"/>
<feGaussianBlur stdDeviation="2"/>
<feComposite in2="hardAlpha" operator="out"/>
<feColorMatrix type="matrix" values="0 0 0 0 0 0 0 0 0 0 0 0 0 0 0 0 0 0 0.16 0"/>
<feBlend mode="normal" in2="BackgroundImageFix" result="effect1_dropShadow_1_859"/>
<feBlend mode="normal" in="SourceGraphic" in2="effect1_dropShadow_1_859" result="shape"/>
</filter>
<clipPath id="clip0_1_859">
<rect width="36" height="36" fill="white"/>
</clipPath>
</defs>
</svg>
